<?xml version="1.0" encoding="UTF-8" standalone="no"?>
<!-- Created with Inkscape (http://www.inkscape.org/) -->

<svg
   width="169mm"
   height="30mm"
   viewBox="0 0 169 30"
   version="1.1"
   id="svg1"
   sodipodi:docname="MilkForge-Logo.svg"
   inkscape:version="1.3.2 (091e20e, 2023-11-25, custom)"
   xmlns:inkscape="http://www.inkscape.org/namespaces/inkscape"
   xmlns:sodipodi="http://sodipodi.sourceforge.net/DTD/sodipodi-0.dtd"
   xmlns="http://www.w3.org/2000/svg"
   xmlns:svg="http://www.w3.org/2000/svg">
  <sodipodi:namedview
     id="namedview1"
     pagecolor="#ffffff"
     bordercolor="#000000"
     borderopacity="0.25"
     inkscape:showpageshadow="2"
     inkscape:pageopacity="0.0"
     inkscape:pagecheckerboard="0"
     inkscape:deskcolor="#d1d1d1"
     inkscape:document-units="mm"
     inkscape:zoom="1"
     inkscape:cx="463"
     inkscape:cy="321.5"
     inkscape:window-width="1920"
     inkscape:window-height="1017"
     inkscape:window-x="-8"
     inkscape:window-y="-8"
     inkscape:window-maximized="1"
     inkscape:current-layer="layer2" />
  <defs
     id="defs1">
    <rect
       x="206.45612"
       y="563.31073"
       width="440.59924"
       height="103.91169"
       id="rect5" />
    <linearGradient
       id="swatch4">
      <stop
         style="stop-color:#000000;stop-opacity:1;"
         offset="0"
         id="stop4" />
    </linearGradient>
    <rect
       x="157.23479"
       y="538.70007"
       width="523.66022"
       height="166.8056"
       id="rect1" />
    <clipPath
       clipPathUnits="userSpaceOnUse"
       id="clipPath51">
      <path
         id="path51"
         style="font-size:22.5778px;font-family:'MV Boli';-inkscape-font-specification:'MV Boli';display:inline;stroke-width:1.465"
         d="m 139.66159,188.90912 c -1.66024,-0.0615 -2.66078,1.78724 -2.46629,3.26972 0.13842,2.24793 -0.91437,4.32705 -1.30297,6.50158 -0.61443,2.50753 -1.53265,4.9781 -1.74944,7.55811 0.16246,1.48755 2.29149,2.23046 3.27651,1.04363 0.9042,-0.96357 0.85754,-2.3851 1.31809,-3.56027 0.20647,-0.77288 0.41294,-1.54576 0.61941,-2.31863 0.84625,0.0457 1.78837,-0.33015 2.51483,0.28158 1.89871,1.06011 2.57103,3.26935 3.56423,5.05463 0.67323,0.98941 2.21517,1.29546 3.09673,0.40402 1.09029,-0.91508 1.05375,-2.65629 0.17449,-3.70045 -0.87917,-1.69811 -1.94441,-3.37541 -3.50848,-4.52221 2.07569,-1.0934 4.26767,-2.70033 4.72135,-5.15506 0.31961,-2.17743 -1.53669,-4.21246 -3.65718,-4.4518 -2.06264,-0.44492 -4.23465,0.22179 -6.23869,-0.37866 -0.11943,-0.0196 -0.24254,-0.02 -0.36259,-0.0262 z m -82.226565,0.11914 c -2.231162,0.18685 -3.696729,2.12066 -5.024104,3.70761 -0.482714,0.58598 -0.940919,1.19315 -1.380191,1.81192 0.287671,-1.4035 0.706998,-3.17208 -0.45743,-4.30313 -0.954821,-1.03545 -2.670416,-1.23419 -3.789609,-0.3439 -2.701888,1.63597 -4.457861,4.38085 -6.06965,7.01539 -1.569416,2.74795 -2.913917,5.65584 -3.737999,8.71562 -0.209505,1.11921 0.4791,2.40549 1.680464,2.53522 1.224116,0.24895 2.421649,-0.7511 2.566726,-1.95715 1.512903,-4.05906 3.071653,-8.22221 5.828982,-11.62299 -0.657214,3.79092 -2.079958,7.41 -2.687415,11.20741 -0.08974,1.37684 1.610987,2.57209 2.80851,1.71642 1.340265,-0.88084 1.460045,-2.65358 2.381599,-3.86489 1.483651,-2.4237 3.11273,-4.75751 4.759661,-7.0711 0.501451,-0.80536 0.483973,-0.43275 0.28253,0.29247 -0.56048,2.81897 -1.288828,5.6216 -1.671487,8.46566 0.0953,1.40866 1.987717,2.54134 3.130508,1.48841 1.387218,-1.24325 1.166439,-3.27235 1.588487,-4.92481 0.543107,-3.52876 1.314201,-7.0303 1.675185,-10.58887 -0.03379,-1.04922 -0.708268,-2.27437 -1.884767,-2.27929 z m 104.453125,0.30468 c -3.29777,0.35499 -5.97602,2.61919 -8.18509,4.92432 -2.06531,2.26122 -3.82571,5.15896 -3.70573,8.3215 0.31112,2.98793 3.38808,5.47903 6.39076,4.82382 3.13305,-0.536 5.99285,-2.42731 7.86373,-4.976 0.89585,-1.29834 1.62412,-2.84913 1.5543,-4.45496 -0.22727,-1.55859 -1.9617,-2.69049 -3.47431,-2.17235 -1.68065,0.32576 -3.18276,1.31359 -4.91288,1.42628 -1.56339,0.3643 -2.3811,2.56302 -1.18291,3.74268 0.75026,0.828 2.0482,0.75789 2.9289,0.19348 0.33659,-0.0489 1.66664,-0.75426 1.04498,-0.16252 -1.13188,1.20398 -2.67194,2.19358 -4.2889,2.52444 -1.38609,-0.0372 -2.27982,-1.77239 -1.56781,-2.94763 1.02914,-2.95967 3.55593,-5.12648 6.20811,-6.63208 0.55906,-0.29674 1.33643,-0.64848 1.802,-0.0338 0.70711,0.67063 1.99538,0.92895 2.63423,0.0243 1.05585,-1.29932 0.49086,-3.43983 -1.03085,-4.10918 -0.63355,-0.34162 -1.36199,-0.49637 -2.07853,-0.49239 z m -97.150389,0.0977 c -1.405737,0.0352 -2.419734,1.39868 -2.472198,2.72522 -1.166781,4.19543 -2.420438,8.37032 -3.28952,12.64001 -0.32762,1.04301 -0.516231,2.54206 0.640625,3.1504 1.405983,0.75148 3.355303,-0.35258 3.388723,-1.96494 0.503899,-2.7288 0.91704,-5.44957 1.886431,-8.06719 0.634122,-2.11978 1.686338,-4.1585 1.902579,-6.37608 -0.09857,-1.05131 -0.909653,-2.15699 -2.05664,-2.10742 z m 6.458984,0.2207 c -1.488601,0.0309 -2.360142,1.61049 -2.339258,2.95522 -0.790464,3.92746 -2.521585,7.66359 -3.335295,11.60746 -0.161428,1.22283 0.583922,2.38884 1.653,2.93507 1.251789,0.8499 2.872285,0.5735 4.175789,0.005 2.317795,-0.80129 4.624959,-1.66219 6.871155,-2.64329 1.269429,-0.74605 1.70892,-2.86147 0.393999,-3.77322 -1.089064,-0.66985 -2.241261,0.20487 -3.272721,0.55858 -1.725078,0.70977 -3.420057,1.52333 -5.232606,1.99198 0.761613,-3.77802 2.491147,-7.26902 3.205078,-11.0625 0.09293,-1.22798 -0.738691,-2.67535 -2.119141,-2.57422 z m 106.884765,0.11914 c -1.6962,0.0934 -3.31262,0.6645 -4.97656,0.95313 -0.93388,-1.19461 -3.09549,-0.77951 -3.55026,0.66178 -1.65713,2.95496 -2.00327,6.39821 -3.20245,9.5315 -0.52764,1.73003 -1.25026,3.46853 -1.28049,5.295 0.19608,1.35216 1.66269,2.19967 2.95584,1.95471 2.94422,-0.0395 5.72686,-1.27821 8.2258,-2.73987 0.89716,-0.58478 1.7781,-1.86136 1.04101,-2.88867 -0.89225,-1.08844 -2.5211,-0.71425 -3.58866,-0.11595 -1.30364,0.63335 -2.59511,1.42794 -4.06368,1.57689 0.23077,-0.53663 0.1704,-1.21911 0.53125,-1.67578 2.39876,-0.75264 4.68268,-1.83368 7.08789,-2.56445 1.05186,-0.4674 2.01629,-1.76165 1.38867,-2.90821 -0.71307,-1.06984 -2.16519,-0.73888 -3.18554,-0.39062 -1.29491,0.35702 -2.57659,0.80295 -3.85938,1.17187 0.32733,-1.12379 0.74039,-2.57082 2.08514,-2.80247 1.91048,-0.62715 3.86796,-1.0946 5.85627,-1.38698 0.8969,-0.17435 1.95008,-0.63338 2.03711,-1.67578 0.18576,-0.918 -0.51943,-1.7715 -1.4215,-1.89038 -0.67846,-0.17817 -1.38731,-0.11487 -2.08046,-0.10572 z m -59.28711,0.0586 c -2.10654,0.018 -4.11136,0.73938 -6.16015,1.13476 -1.09421,-0.97647 -3.03142,-0.2423 -3.31416,1.16836 -1.05147,2.35348 -1.46286,4.91425 -2.31137,7.32892 -0.37959,0.58174 -1.03982,1.00822 -1.12651,1.76484 -0.19091,0.60656 0.0332,1.24045 0.24379,1.78072 -0.1443,1.62082 -0.95037,3.47898 0.10004,4.95716 0.91221,1.08312 3.01889,0.52509 3.10658,-0.95016 0.36807,-1.36206 0.57179,-2.78544 0.99108,-4.1221 1.96197,-0.9008 4.10428,-1.48511 6.28125,-1.51367 1.52412,-0.53693 1.60538,-3.19544 -0.0658,-3.57472 -1.63455,-0.43175 -3.35484,-0.15456 -4.96347,0.25636 0.30607,-0.91921 0.42386,-2.01909 1.12194,-2.72573 2.13014,-1.02592 4.50686,-1.30597 6.78822,-1.80552 1.12267,-0.26287 2.11525,-1.48784 1.61328,-2.64649 -0.34016,-0.87479 -1.33792,-1.15621 -2.19323,-1.05053 -0.0393,0.11372 -0.0752,-0.0217 -0.11146,-0.002 z m -26.281253,0.0547 c -1.350081,0.056 -1.90206,1.47183 -2.546871,2.42773 -1.494867,1.69498 -2.92409,3.47662 -4.708985,4.88281 0.58657,-1.85686 1.340276,-3.84294 0.891627,-5.80649 -0.729334,-1.67797 -3.625464,-1.25955 -3.876,0.54477 -1.015849,4.30424 -2.291308,8.55563 -3.038613,12.91614 -0.122359,1.21117 0.25762,2.89283 1.666962,3.11804 1.446956,0.25291 2.638301,-1.26802 2.439962,-2.63387 0.07387,-0.94169 0.131691,-1.8936 0.38286,-2.80851 0.802005,-0.31756 1.70254,-0.88292 2.557192,-0.40063 1.875237,0.46748 3.38137,2.20498 3.399944,4.16586 0.14434,1.20762 1.260012,2.3874 2.550673,2.07071 1.43311,-0.2067 2.422729,-1.88624 1.780918,-3.22021 -0.585419,-2.60612 -2.22581,-5.04974 -4.630523,-6.28956 1.947675,-1.75491 3.838874,-3.66545 5.146485,-5.94726 0.222289,-1.30486 -0.456822,-3.07693 -2.015631,-3.01953 z m 34.644543,0.10937 c -1.908,0.0583 -3.11279,1.75067 -4.3848,2.93501 -2.54728,2.69178 -4.79693,6.04162 -4.96234,9.85522 -0.0182,2.33426 1.56854,4.75507 3.96692,5.15523 3.42862,0.81146 6.95341,-0.93613 9.28851,-3.38237 2.66083,-2.76758 4.22686,-6.88311 3.21794,-10.68769 -0.56711,-2.00996 -2.39686,-3.89731 -4.61842,-3.68985 -0.46727,0.0295 -0.92078,0.40271 -1.32645,0.0352 -0.37092,-0.16029 -0.7811,-0.20993 -1.18136,-0.22074 z m 50.50195,2.7207 c 0.0933,0.33847 -0.29033,-0.0883 0,0 z m -34.22266,0.6543 c 0.71435,0.0617 1.50774,-0.11936 2.16211,0.23047 -0.54112,0.95083 -1.62806,1.38534 -2.49019,1.9893 -0.80918,0.46993 -1.66104,0.86064 -2.51762,1.23531 0.31315,-1.06576 0.6263,-2.13151 0.93945,-3.19727 0.60937,-0.1756 1.24614,-0.22995 1.90625,-0.25781 z m -13.90234,0.68164 c 1.24899,0.50575 1.30592,2.11578 0.98914,3.23306 -0.59861,2.86998 -2.56066,5.59998 -5.36175,6.63881 -0.98091,0.31979 -2.33087,0.46011 -3.05903,-0.41874 -0.58688,-1.22493 0.25656,-2.53545 0.7179,-3.6571 0.95607,-1.90469 2.33775,-3.6044 3.87194,-5.05189 0.92449,0.52732 2.21341,0.14194 2.74219,-0.76953 l 0.0969,0.0247 z"
         inkscape:label="Milk Forge Mask" />
    </clipPath>
    <clipPath
       clipPathUnits="userSpaceOnUse"
       id="clipPath52">
      <path
         id="path52"
         style="font-size:22.5778px;font-family:'MV Boli';-inkscape-font-specification:'MV Boli';display:inline;stroke-width:1.465"
         d="m 139.66159,188.90912 c -1.66024,-0.0615 -2.66078,1.78724 -2.46629,3.26972 0.13842,2.24793 -0.91437,4.32705 -1.30297,6.50158 -0.61443,2.50753 -1.53265,4.9781 -1.74944,7.55811 0.16246,1.48755 2.29149,2.23046 3.27651,1.04363 0.9042,-0.96357 0.85754,-2.3851 1.31809,-3.56027 0.20647,-0.77288 0.41294,-1.54576 0.61941,-2.31863 0.84625,0.0457 1.78837,-0.33015 2.51483,0.28158 1.89871,1.06011 2.57103,3.26935 3.56423,5.05463 0.67323,0.98941 2.21517,1.29546 3.09673,0.40402 1.09029,-0.91508 1.05375,-2.65629 0.17449,-3.70045 -0.87917,-1.69811 -1.94441,-3.37541 -3.50848,-4.52221 2.07569,-1.0934 4.26767,-2.70033 4.72135,-5.15506 0.31961,-2.17743 -1.53669,-4.21246 -3.65718,-4.4518 -2.06264,-0.44492 -4.23465,0.22179 -6.23869,-0.37866 -0.11943,-0.0196 -0.24254,-0.02 -0.36259,-0.0262 z m -82.226565,0.11914 c -2.231162,0.18685 -3.696729,2.12066 -5.024104,3.70761 -0.482714,0.58598 -0.940919,1.19315 -1.380191,1.81192 0.287671,-1.4035 0.706998,-3.17208 -0.45743,-4.30313 -0.954821,-1.03545 -2.670416,-1.23419 -3.789609,-0.3439 -2.701888,1.63597 -4.457861,4.38085 -6.06965,7.01539 -1.569416,2.74795 -2.913917,5.65584 -3.737999,8.71562 -0.209505,1.11921 0.4791,2.40549 1.680464,2.53522 1.224116,0.24895 2.421649,-0.7511 2.566726,-1.95715 1.512903,-4.05906 3.071653,-8.22221 5.828982,-11.62299 -0.657214,3.79092 -2.079958,7.41 -2.687415,11.20741 -0.08974,1.37684 1.610987,2.57209 2.80851,1.71642 1.340265,-0.88084 1.460045,-2.65358 2.381599,-3.86489 1.483651,-2.4237 3.11273,-4.75751 4.759661,-7.0711 0.501451,-0.80536 0.483973,-0.43275 0.28253,0.29247 -0.56048,2.81897 -1.288828,5.6216 -1.671487,8.46566 0.0953,1.40866 1.987717,2.54134 3.130508,1.48841 1.387218,-1.24325 1.166439,-3.27235 1.588487,-4.92481 0.543107,-3.52876 1.314201,-7.0303 1.675185,-10.58887 -0.03379,-1.04922 -0.708268,-2.27437 -1.884767,-2.27929 z m 104.453125,0.30468 c -3.29777,0.35499 -5.97602,2.61919 -8.18509,4.92432 -2.06531,2.26122 -3.82571,5.15896 -3.70573,8.3215 0.31112,2.98793 3.38808,5.47903 6.39076,4.82382 3.13305,-0.536 5.99285,-2.42731 7.86373,-4.976 0.89585,-1.29834 1.62412,-2.84913 1.5543,-4.45496 -0.22727,-1.55859 -1.9617,-2.69049 -3.47431,-2.17235 -1.68065,0.32576 -3.18276,1.31359 -4.91288,1.42628 -1.56339,0.3643 -2.3811,2.56302 -1.18291,3.74268 0.75026,0.828 2.0482,0.75789 2.9289,0.19348 0.33659,-0.0489 1.66664,-0.75426 1.04498,-0.16252 -1.13188,1.20398 -2.67194,2.19358 -4.2889,2.52444 -1.38609,-0.0372 -2.27982,-1.77239 -1.56781,-2.94763 1.02914,-2.95967 3.55593,-5.12648 6.20811,-6.63208 0.55906,-0.29674 1.33643,-0.64848 1.802,-0.0338 0.70711,0.67063 1.99538,0.92895 2.63423,0.0243 1.05585,-1.29932 0.49086,-3.43983 -1.03085,-4.10918 -0.63355,-0.34162 -1.36199,-0.49637 -2.07853,-0.49239 z m -97.150389,0.0977 c -1.405737,0.0352 -2.419734,1.39868 -2.472198,2.72522 -1.166781,4.19543 -2.420438,8.37032 -3.28952,12.64001 -0.32762,1.04301 -0.516231,2.54206 0.640625,3.1504 1.405983,0.75148 3.355303,-0.35258 3.388723,-1.96494 0.503899,-2.7288 0.91704,-5.44957 1.886431,-8.06719 0.634122,-2.11978 1.686338,-4.1585 1.902579,-6.37608 -0.09857,-1.05131 -0.909653,-2.15699 -2.05664,-2.10742 z m 6.458984,0.2207 c -1.488601,0.0309 -2.360142,1.61049 -2.339258,2.95522 -0.790464,3.92746 -2.521585,7.66359 -3.335295,11.60746 -0.161428,1.22283 0.583922,2.38884 1.653,2.93507 1.251789,0.8499 2.872285,0.5735 4.175789,0.005 2.317795,-0.80129 4.624959,-1.66219 6.871155,-2.64329 1.269429,-0.74605 1.70892,-2.86147 0.393999,-3.77322 -1.089064,-0.66985 -2.241261,0.20487 -3.272721,0.55858 -1.725078,0.70977 -3.420057,1.52333 -5.232606,1.99198 0.761613,-3.77802 2.491147,-7.26902 3.205078,-11.0625 0.09293,-1.22798 -0.738691,-2.67535 -2.119141,-2.57422 z m 106.884765,0.11914 c -1.6962,0.0934 -3.31262,0.6645 -4.97656,0.95313 -0.93388,-1.19461 -3.09549,-0.77951 -3.55026,0.66178 -1.65713,2.95496 -2.00327,6.39821 -3.20245,9.5315 -0.52764,1.73003 -1.25026,3.46853 -1.28049,5.295 0.19608,1.35216 1.66269,2.19967 2.95584,1.95471 2.94422,-0.0395 5.72686,-1.27821 8.2258,-2.73987 0.89716,-0.58478 1.7781,-1.86136 1.04101,-2.88867 -0.89225,-1.08844 -2.5211,-0.71425 -3.58866,-0.11595 -1.30364,0.63335 -2.59511,1.42794 -4.06368,1.57689 0.23077,-0.53663 0.1704,-1.21911 0.53125,-1.67578 2.39876,-0.75264 4.68268,-1.83368 7.08789,-2.56445 1.05186,-0.4674 2.01629,-1.76165 1.38867,-2.90821 -0.71307,-1.06984 -2.16519,-0.73888 -3.18554,-0.39062 -1.29491,0.35702 -2.57659,0.80295 -3.85938,1.17187 0.32733,-1.12379 0.74039,-2.57082 2.08514,-2.80247 1.91048,-0.62715 3.86796,-1.0946 5.85627,-1.38698 0.8969,-0.17435 1.95008,-0.63338 2.03711,-1.67578 0.18576,-0.918 -0.51943,-1.7715 -1.4215,-1.89038 -0.67846,-0.17817 -1.38731,-0.11487 -2.08046,-0.10572 z m -59.28711,0.0586 c -2.10654,0.018 -4.11136,0.73938 -6.16015,1.13476 -1.09421,-0.97647 -3.03142,-0.2423 -3.31416,1.16836 -1.05147,2.35348 -1.46286,4.91425 -2.31137,7.32892 -0.37959,0.58174 -1.03982,1.00822 -1.12651,1.76484 -0.19091,0.60656 0.0332,1.24045 0.24379,1.78072 -0.1443,1.62082 -0.95037,3.47898 0.10004,4.95716 0.91221,1.08312 3.01889,0.52509 3.10658,-0.95016 0.36807,-1.36206 0.57179,-2.78544 0.99108,-4.1221 1.96197,-0.9008 4.10428,-1.48511 6.28125,-1.51367 1.52412,-0.53693 1.60538,-3.19544 -0.0658,-3.57472 -1.63455,-0.43175 -3.35484,-0.15456 -4.96347,0.25636 0.30607,-0.91921 0.42386,-2.01909 1.12194,-2.72573 2.13014,-1.02592 4.50686,-1.30597 6.78822,-1.80552 1.12267,-0.26287 2.11525,-1.48784 1.61328,-2.64649 -0.34016,-0.87479 -1.33792,-1.15621 -2.19323,-1.05053 -0.0393,0.11372 -0.0752,-0.0217 -0.11146,-0.002 z m -26.281253,0.0547 c -1.350081,0.056 -1.90206,1.47183 -2.546871,2.42773 -1.494867,1.69498 -2.92409,3.47662 -4.708985,4.88281 0.58657,-1.85686 1.340276,-3.84294 0.891627,-5.80649 -0.729334,-1.67797 -3.625464,-1.25955 -3.876,0.54477 -1.015849,4.30424 -2.291308,8.55563 -3.038613,12.91614 -0.122359,1.21117 0.25762,2.89283 1.666962,3.11804 1.446956,0.25291 2.638301,-1.26802 2.439962,-2.63387 0.07387,-0.94169 0.131691,-1.8936 0.38286,-2.80851 0.802005,-0.31756 1.70254,-0.88292 2.557192,-0.40063 1.875237,0.46748 3.38137,2.20498 3.399944,4.16586 0.14434,1.20762 1.260012,2.3874 2.550673,2.07071 1.43311,-0.2067 2.422729,-1.88624 1.780918,-3.22021 -0.585419,-2.60612 -2.22581,-5.04974 -4.630523,-6.28956 1.947675,-1.75491 3.838874,-3.66545 5.146485,-5.94726 0.222289,-1.30486 -0.456822,-3.07693 -2.015631,-3.01953 z m 34.644543,0.10937 c -1.908,0.0583 -3.11279,1.75067 -4.3848,2.93501 -2.54728,2.69178 -4.79693,6.04162 -4.96234,9.85522 -0.0182,2.33426 1.56854,4.75507 3.96692,5.15523 3.42862,0.81146 6.95341,-0.93613 9.28851,-3.38237 2.66083,-2.76758 4.22686,-6.88311 3.21794,-10.68769 -0.56711,-2.00996 -2.39686,-3.89731 -4.61842,-3.68985 -0.46727,0.0295 -0.92078,0.40271 -1.32645,0.0352 -0.37092,-0.16029 -0.7811,-0.20993 -1.18136,-0.22074 z m 50.50195,2.7207 c 0.0933,0.33847 -0.29033,-0.0883 0,0 z m -34.22266,0.6543 c 0.71435,0.0617 1.50774,-0.11936 2.16211,0.23047 -0.54112,0.95083 -1.62806,1.38534 -2.49019,1.9893 -0.80918,0.46993 -1.66104,0.86064 -2.51762,1.23531 0.31315,-1.06576 0.6263,-2.13151 0.93945,-3.19727 0.60937,-0.1756 1.24614,-0.22995 1.90625,-0.25781 z m -13.90234,0.68164 c 1.24899,0.50575 1.30592,2.11578 0.98914,3.23306 -0.59861,2.86998 -2.56066,5.59998 -5.36175,6.63881 -0.98091,0.31979 -2.33087,0.46011 -3.05903,-0.41874 -0.58688,-1.22493 0.25656,-2.53545 0.7179,-3.6571 0.95607,-1.90469 2.33775,-3.6044 3.87194,-5.05189 0.92449,0.52732 2.21341,0.14194 2.74219,-0.76953 l 0.0969,0.0247 z"
         inkscape:label="Milk Forge Mask" />
    </clipPath>
    <filter
       inkscape:collect="always"
       style="color-interpolation-filters:sRGB"
       id="filter87"
       x="-0.034382554"
       y="-0.13302424"
       width="1.0687651"
       height="1.2660485">
      <feGaussianBlur
         inkscape:collect="always"
         stdDeviation="1.087614"
         id="feGaussianBlur87" />
    </filter>
    <filter
       inkscape:collect="always"
       style="color-interpolation-filters:sRGB"
       id="filter88"
       x="-0.035092663"
       y="-0.10433314"
       width="1.0701853"
       height="1.2086663">
      <feGaussianBlur
         inkscape:collect="always"
         stdDeviation="0.84267736"
         id="feGaussianBlur88" />
    </filter>
  </defs>
  <g
     inkscape:label="Lag 1"
     inkscape:groupmode="layer"
     id="layer1"
     style="display:none">
    <rect
       style="display:inline;opacity:1;fill:#d7edf7;fill-opacity:1;stroke-width:2.72919;stroke-dasharray:none"
       id="rect8"
       width="156.50104"
       height="92.736458"
       x="28.574999"
       y="150.94479"
       inkscape:label="Background" />
    <path
       id="text8"
       style="font-size:22.5778px;font-family:'MV Boli';-inkscape-font-specification:'MV Boli';stroke-width:1.465"
       d="m 67.244141,216.44531 c -1.400158,0.203 -1.881528,1.78955 -1.947266,3.00391 -0.919079,4.41881 -2.302362,8.73129 -3.149738,13.1636 -0.302705,1.1866 0.29514,2.59485 1.519176,2.95229 1.106031,0.39319 2.279339,-0.41317 2.547958,-1.50404 0.342649,-1.18975 0.208124,-2.46326 0.608313,-3.64503 0.86107,-3.99236 2.075687,-7.9508 2.8864,-11.97659 0.08225,-1.272 -1.340596,-2.06626 -2.464843,-1.99414 z m 67.812499,0.14844 c -1.65764,-0.0613 -2.659,1.78537 -2.46459,3.26583 0.13099,2.24888 -0.90727,4.33132 -1.30563,6.50522 -0.61885,2.47525 -1.48091,4.91601 -1.76167,7.45744 0.0746,1.54674 2.29956,2.37159 3.30142,1.13088 0.91225,-0.99211 0.85742,-2.44127 1.32949,-3.64043 0.19746,-0.7416 0.39492,-1.4832 0.59239,-2.2248 0.84562,0.0466 1.78918,-0.33196 2.51795,0.28108 1.89806,1.06797 2.57862,3.27146 3.56994,5.06462 0.70988,1.06244 2.40734,1.2753 3.24325,0.24639 0.95525,-0.95137 0.84245,-2.56449 0.0191,-3.5601 -0.87748,-1.69594 -1.94536,-3.3647 -3.50258,-4.51441 2.07973,-1.09383 4.27543,-2.70816 4.72215,-5.1689 0.30894,-2.1884 -1.57038,-4.22152 -3.70155,-4.44524 -2.05202,-0.42508 -4.20799,0.2187 -6.20095,-0.3716 -0.11814,-0.0194 -0.23996,-0.0199 -0.35871,-0.026 z m -79.783202,0.11914 c -2.266043,0.19659 -3.73668,2.17868 -5.086356,3.78623 -0.457064,0.56332 -0.895885,1.14284 -1.314035,1.73526 0.287346,-1.40573 0.708877,-3.17967 -0.461982,-4.3103 -0.957923,-1.03647 -2.678894,-1.22407 -3.79648,-0.33037 -2.715632,1.65088 -4.480208,4.41631 -6.093826,7.07261 -1.54407,2.70134 -2.853939,5.56219 -3.684821,8.56415 -0.237321,1.08214 0.336685,2.38686 1.511333,2.58179 1.210826,0.32116 2.576927,-0.58781 2.689433,-1.84939 1.520365,-4.08331 3.096697,-8.28955 5.85978,-11.68748 -0.665785,3.78093 -2.069382,7.39982 -2.691406,11.18359 -0.07821,1.28975 1.33371,2.43537 2.556641,1.87891 1.48586,-0.72659 1.674512,-2.58597 2.524252,-3.84114 1.46218,-2.37233 3.060892,-4.66142 4.647623,-6.95183 0.303043,-0.38051 0.919371,-1.3445 0.566256,-0.28542 -0.579502,2.91665 -1.330852,5.81611 -1.73192,8.75796 0.09379,1.41039 1.993338,2.54427 3.132461,1.48449 1.38645,-1.24261 1.166368,-3.26735 1.586535,-4.91894 0.543315,-3.53002 1.31402,-7.03295 1.675183,-10.59278 -0.03633,-1.04678 -0.710735,-2.27998 -1.888671,-2.27734 z m 102.039062,0.30469 c -3.10545,0.2899 -5.65121,2.37697 -7.79703,4.47405 -2.17787,2.2575 -4.05639,5.13752 -4.14531,8.36344 0.0698,3.03181 3.011,5.75014 6.07091,5.27811 2.68943,-0.31801 5.14946,-1.78384 7.06674,-3.6449 1.51637,-1.57205 2.74994,-3.66193 2.67977,-5.90293 -0.27369,-1.72605 -2.38309,-2.73394 -3.93422,-1.98623 -1.53151,0.45248 -2.99143,1.18865 -4.59392,1.35945 -1.56476,0.46865 -2.20293,2.7827 -0.87038,3.85198 0.7779,0.68225 1.93879,0.53802 2.76701,0.0377 0.33547,-0.0484 1.66369,-0.75293 1.04692,-0.16448 -1.13525,1.19542 -2.63721,2.19119 -4.29475,2.52439 -1.38393,-0.0439 -2.26461,-1.77447 -1.56169,-2.95012 1.01542,-2.93707 3.55314,-5.11475 6.20462,-6.63504 0.56765,-0.23547 1.32067,-0.69307 1.7793,-0.0488 0.69091,0.64719 1.91703,0.95863 2.59765,0.125 1.12334,-1.26785 0.59827,-3.45977 -0.91796,-4.17188 -0.6413,-0.3463 -1.37043,-0.51389 -2.09766,-0.50976 z m -84.316406,0.14062 c -1.181706,0.1969 -1.635122,1.4842 -1.767586,2.52402 -1.200895,4.61833 -2.793605,9.14927 -3.675248,13.83962 -0.01936,1.63966 2.372693,2.52629 3.403771,1.22816 0.764605,-0.92856 0.655933,-2.2228 1.070991,-3.30106 0.04465,-0.53674 0.253883,-1.05002 0.786431,-1.23605 0.405717,-0.36167 0.725243,0.0335 0.832974,0.42368 0.645341,1.38337 0.01284,3.09655 0.874057,4.38882 1.035687,1.23414 3.480231,0.67592 3.618003,-1.01856 0.30571,-1.80678 -0.06057,-3.70506 -0.805503,-5.3623 -0.209816,-0.40708 -0.461595,-0.79394 -0.763672,-1.13867 1.244408,-0.99851 2.89326,-1.94804 3.167785,-3.66213 0.09678,-1.58372 -2.01561,-2.60543 -3.235903,-1.61915 -1.010059,0.67504 -1.612831,1.78474 -2.590085,2.50198 0.58915,-1.94361 1.35104,-3.84908 1.746094,-5.84179 -0.07884,-1.2748 -1.543393,-1.89593 -2.662109,-1.72657 z m 101.541016,0.27735 c -2.06711,-0.0911 -4.04612,0.59825 -6.0332,0.97656 -0.93927,-1.20246 -3.11325,-0.77779 -3.56335,0.67381 -1.67529,3.01947 -2.03407,6.52606 -3.25827,9.7211 -0.50649,1.66 -1.19808,3.3297 -1.21549,5.0836 0.18867,1.31267 1.5864,2.18852 2.86015,1.96019 2.99885,-0.008 5.8372,-1.27625 8.37227,-2.77464 0.88322,-0.58678 1.7301,-1.8705 0.97482,-2.86978 -0.93121,-1.09616 -2.5878,-0.67565 -3.66708,-0.049 -1.27648,0.62104 -2.54616,1.369 -3.98157,1.53595 0.29405,-0.56848 0.11056,-1.44584 0.72656,-1.79102 1.83252,-0.45954 3.5526,-1.34331 5.35378,-1.93612 1.08443,-0.32147 2.32926,-0.65924 2.89427,-1.74942 0.57385,-0.86629 0.11004,-2.2162 -0.97069,-2.36338 -1.3371,-0.19173 -2.56824,0.48582 -3.8365,0.78802 -0.73163,0.22471 -1.45898,0.4632 -2.19281,0.68083 0.32746,-1.11591 0.72627,-2.55603 2.05761,-2.80503 1.85271,-0.58328 3.68586,-1.0761 5.59296,-1.33324 0.96214,-0.17643 2.18807,-0.54256 2.32013,-1.68595 0.20333,-0.90089 -0.45201,-1.79308 -1.35547,-1.92188 -0.35193,-0.0939 -0.71524,-0.13331 -1.07812,-0.14062 z m -59.80273,0.0547 c -2.2922,-0.0378 -4.48297,0.70447 -6.70508,1.15625 -1.09365,-0.97232 -3.02996,-0.24553 -3.31392,1.16455 -1.03657,2.34253 -1.46776,4.8931 -2.29721,7.30185 -0.35887,0.61037 -1.05982,1.023 -1.14091,1.79768 -0.19116,0.60652 0.0337,1.24042 0.24357,1.78069 -0.14011,1.58559 -0.90131,3.34999 0.005,4.84 0.81335,1.13931 2.85076,0.79264 3.16797,-0.60156 0.30687,-1.44638 0.6464,-2.88761 0.98437,-4.33008 1.98803,-0.96547 4.18861,-1.46938 6.38282,-1.56641 1.46455,-0.5848 1.52509,-3.1527 -0.11328,-3.54297 -1.64071,-0.42057 -3.36928,-0.17842 -4.97852,0.26563 0.32684,-0.97249 0.40358,-1.97727 1.12047,-2.73052 2.13949,-1.03954 4.52839,-1.31327 6.82289,-1.80854 1.13293,-0.30519 2.13331,-1.58872 1.54101,-2.75196 -0.32181,-0.63021 -1.03313,-0.96169 -1.71874,-0.97461 z m 7.82421,0.18946 c -1.9099,0.0521 -3.11897,1.74781 -4.38874,2.93497 -2.56884,2.71703 -4.85724,6.10715 -4.95945,9.96854 0.008,2.35194 1.69449,4.73244 4.10531,5.07826 3.45428,0.72782 6.95516,-1.06274 9.26878,-3.54828 2.57547,-2.76165 4.09,-6.80411 3.09938,-10.54668 -0.56683,-1.98464 -2.3321,-3.85286 -4.52957,-3.70908 -0.49844,-0.037 -0.97821,0.44436 -1.4001,0.0495 -0.37246,-0.17353 -0.79008,-0.21565 -1.19561,-0.22724 z m -60.843746,0.70508 c -2.020075,-0.0604 -3.498387,2.72952 -2.03711,4.25195 1.514565,1.39669 4.184057,-0.0636 4.158204,-2.02734 0.01082,-1.09533 -0.990022,-1.90025 -1.945313,-2.20899 -0.05842,0.004 -0.117236,-0.0228 -0.175781,-0.0156 z m 111.300776,1.98437 c 0.2683,0.23368 -0.23871,0.10432 0,0 z m -34.18359,0.68164 c 0.70742,0.0704 1.54032,-0.12488 2.16016,0.24805 -0.56507,0.95077 -1.66075,1.40219 -2.53923,2.01073 -0.79677,0.44925 -1.62778,0.83473 -2.46663,1.19825 0.31315,-1.06575 0.6263,-2.13151 0.93945,-3.19726 0.6094,-0.1762 1.24624,-0.22847 1.90625,-0.25977 z m -13.9082,0.68164 c 1.24875,0.47231 1.28844,2.04731 1.01168,3.14815 -0.56961,2.93531 -2.59402,5.70878 -5.44723,6.75615 -0.94402,0.28883 -2.20854,0.39327 -2.96484,-0.41016 -0.62022,-1.20184 0.19315,-2.51994 0.65825,-3.6293 0.96721,-1.94006 2.35737,-3.63944 3.90229,-5.14804 0.88943,0.61979 2.20879,0.13609 2.7461,-0.73828 z m -64.880861,1.69922 c -1.317998,0.0776 -2.094436,1.44128 -2.167153,2.6399 -0.627066,2.66397 -1.646547,5.30243 -1.942581,8.05101 0.144872,1.61233 2.549776,2.58618 3.578484,1.17237 0.932836,-2.41064 1.324879,-4.99588 2.103071,-7.44689 0.271948,-1.05111 0.677852,-2.15255 0.549997,-3.23805 -0.299387,-0.85276 -1.281515,-1.21896 -2.121818,-1.17834 z" />
    <path
       id="use32"
       style="font-size:85.3333px;font-family:'MV Boli';-inkscape-font-specification:'MV Boli';white-space:pre;display:inline;fill:#000000;fill-opacity:1;stroke-width:1.465;stroke-dasharray:none"
       d="m 83.711198,158.10872 c -1.331383,0.20304 -1.872314,1.67981 -1.965409,2.86048 -0.878616,4.79138 -2.621805,9.40766 -3.184425,14.25689 0.04721,1.6274 2.337434,2.81145 3.510025,1.4764 1.03246,-1.14502 0.733585,-2.74692 1.124972,-4.13785 0.824819,-4.24117 2.217557,-8.36192 2.942572,-12.61998 -0.02514,-1.22421 -1.323485,-1.9299 -2.427735,-1.83594 z m -12.36914,0.3125 c -2.199138,0.48755 -3.547574,2.2942 -4.875,3.96875 -0.118938,0.34597 -0.701473,0.84563 -0.871094,0.29883 0.0055,-0.90087 0.155717,-1.88189 -0.388672,-2.6836 -0.976279,-1.70891 -3.592119,-1.69493 -4.826172,-0.2871 -3.408053,2.56289 -5.397436,6.47225 -7.242654,10.19798 -0.857351,1.90084 -1.736763,3.87901 -1.858908,5.98366 0.295413,1.67533 2.98884,2.27193 3.759765,0.64257 0.868559,-1.56976 1.224807,-3.3574 2.036316,-4.95609 1.099189,-2.60579 2.249655,-5.28376 4.178528,-7.39547 -0.574265,3.84633 -2.215977,7.48293 -2.547223,11.37495 0.192357,1.59606 2.783865,2.09725 3.446603,0.5729 1.018434,-1.64676 1.689953,-3.49838 2.900433,-5.0275 1.239856,-1.87356 2.425679,-3.80235 3.899406,-5.50629 -0.454058,3.17659 -1.488107,6.28036 -1.648438,9.49415 0.378649,1.57291 3.033536,1.95574 3.614834,0.34064 1.017426,-2.10798 0.884852,-4.46775 1.434922,-6.70712 0.431528,-2.89885 1.230217,-5.7858 1.152994,-8.7321 -0.205211,-0.95638 -1.106696,-1.90861 -2.16564,-1.57916 z m 18.261718,0.36328 c -1.314639,0.16619 -1.839934,1.60156 -1.968365,2.74576 -1.200248,4.62886 -2.851406,9.16493 -3.603989,13.89479 0.210119,1.77142 3.276958,2.16111 3.746918,0.35636 0.440276,-1.19362 0.512948,-2.53484 1.07153,-3.66097 0.328891,-0.36179 1.143338,-0.56985 1.242517,0.0971 0.664585,1.48478 -0.02301,3.35454 1.107093,4.65287 1.271329,1.14145 3.713054,-0.008 3.457665,-1.75615 0.160838,-2.09717 -0.284748,-4.28879 -1.629541,-5.96846 1.316418,-1.01044 3.034671,-2.0842 3.15625,-3.91797 -0.14103,-1.74744 -2.891182,-2.37224 -3.791015,-0.87109 -0.635137,0.65741 -1.272208,1.31173 -1.951172,1.92578 0.524467,-2.05418 1.495033,-4.04316 1.590406,-6.17586 -0.33963,-0.97232 -1.475618,-1.38388 -2.428297,-1.32219 z m 29.876954,0.36524 c -2.04815,0.0877 -3.98122,0.73033 -5.99024,1.11718 -1.29874,-1.02217 -3.41181,0.0518 -3.52734,1.65039 -0.94888,2.30988 -1.34676,4.83128 -2.2832,7.125 -0.98838,0.71759 -1.29746,2.15658 -0.75782,3.23047 -0.0358,1.62939 -0.90773,3.37248 0.0606,4.89258 0.8651,1.24863 3.10394,0.63368 3.21356,-0.8867 0.34677,-1.26485 0.47519,-2.6589 0.94464,-3.91408 0.41816,-0.5476 1.20062,-0.56621 1.79345,-0.85114 1.50765,-0.5342 3.11207,-0.71897 4.68507,-0.88909 1.42361,-0.66417 1.22164,-3.23589 -0.35938,-3.55274 -1.5273,-0.3594 -3.23981,-0.0314 -4.80468,0.27344 0.31571,-1.10056 0.43524,-2.69526 1.76486,-3.04425 2.36048,-0.88049 4.97861,-0.90572 7.24174,-2.04342 1.11967,-0.94827 0.41946,-3.21117 -1.13904,-3.09395 -0.27977,-0.0297 -0.56152,-0.0123 -0.84217,-0.0137 z m -41.654297,0.88281 c -1.912264,0.18591 -3.074998,3.05231 -1.506442,4.3314 0.438963,0.13425 0.453361,0.74952 -0.05215,0.7604 -1.428524,0.27128 -1.904506,1.88811 -2.073447,3.13989 -0.603495,2.60762 -1.683949,5.15247 -1.748819,7.85229 0.364354,1.51772 2.927103,2.05291 3.62033,0.54088 0.983923,-3.30403 1.953844,-6.62814 2.613115,-10.00998 -0.01801,-0.91083 -0.912426,-1.3579 -1.608445,-1.72816 1.176592,-0.0364 2.437339,-0.51918 2.95267,-1.65497 0.845926,-1.5146 -0.599715,-3.28291 -2.19681,-3.23175 z m 48.628907,4.00976 c -3.99399,0.78137 -7.36411,4.25545 -7.94532,8.29493 -0.26428,1.529 0.12881,3.24532 1.42969,4.20312 1.7643,1.39801 4.33703,0.99143 6.1582,-0.0801 2.65725,-1.65464 4.6303,-4.67853 4.53976,-7.87123 -0.0347,-2.19869 -1.71305,-4.86395 -4.18233,-4.54674 z m 7.43554,0.17774 c -1.34845,0.20605 -1.90351,1.73218 -1.82984,2.94159 -0.18744,2.93003 -1.43424,5.7236 -1.35766,8.6756 0.39378,1.62947 3.13669,1.94378 3.69922,0.27343 0.49517,-1.27826 0.29575,-2.69723 0.81587,-4.00073 0.36504,-1.3982 1.13941,-2.8108 2.50249,-3.44458 0.7738,1.09752 2.47711,1.35387 3.47874,0.42349 0.50855,-0.25726 0.33141,-1.04005 0.45863,-1.53708 -0.0452,-1.99278 -2.19211,-3.46306 -4.0874,-3.0115 -0.63391,0.11481 -1.21387,0.412 -1.7738,0.71884 -0.4049,-0.653 -1.10215,-1.15948 -1.90625,-1.03906 z m 14.07422,0.42383 c -2.57602,0.11707 -4.63624,2.00841 -6.02467,4.03068 -0.49051,0.57482 -0.76809,1.31749 -1.09002,2.00367 -0.69897,1.60529 -0.53143,3.84269 1.10688,4.8094 1.01381,0.64057 2.28772,0.59076 3.39258,0.23633 -0.48531,1.08293 -1.43653,2.05196 -2.6836,2.11132 -1.47069,0.35288 -2.71985,2.23137 -1.70757,3.60149 0.72452,0.95345 2.07699,0.92067 3.0797,0.48808 3.03762,-0.80167 5.03252,-3.68955 5.75087,-6.61418 0.32877,-0.85451 0.34309,-1.82595 0.88872,-2.58671 0.25872,0.89547 0.0867,1.92096 0.73366,2.69092 1.17135,1.7781 3.55334,1.99345 5.47749,1.65432 2.09798,-0.31541 4.29786,-1.41898 5.0997,-3.4667 0.21697,-1.07421 -0.77847,-2.27968 -1.91647,-1.92808 -1.00576,0.23311 0.0271,-0.37258 0.33023,-0.67898 1.23875,-1.04495 1.763,-2.9536 0.8711,-4.38281 -0.74835,-1.38067 -2.47925,-1.81744 -3.92932,-1.48146 -2.45803,0.42713 -4.26716,2.38882 -5.54529,4.40333 -0.25062,0.44761 -0.877,0.16024 -0.70846,-0.32017 0.13285,-1.15175 0.67884,-2.63144 -0.29473,-3.56219 -0.72355,-0.75754 -1.80772,-1.0525 -2.8308,-1.00826 z m -6.21093,4.11523 c 0.3711,-0.088 0.0433,-0.36261 0,0 z m -15.28516,0.18359 c 0.0608,1.68607 -1.0396,3.24507 -2.38306,4.16053 -0.49399,0.3586 -1.54233,0.43489 -1.60598,-0.36003 -0.0264,-1.27231 0.12646,-2.62143 0.91383,-3.5105 0.62302,-0.54849 2.22533,-0.62025 3.07326,-0.56148 6.5e-4,0.0905 10e-4,0.18099 0.002,0.27148 z m 14.82226,0.43946 c 0.2394,0.20621 0.17242,-0.40545 0,0 z m 16.30274,3.36523 c -0.71566,0.82246 -1.88588,0.80664 -2.86328,0.5918 0.87737,-0.46075 1.87499,-0.67693 2.86328,-0.5918 z"
       sodipodi:nodetypes="ccccccccccccccccccccccccccsccccccccccccsssccccccccccccccsssccccccccsssccccsscccccccccccccccccccccccccccccccccccccccccccccc" />
    <path
       id="path40"
       style="font-size:85.3333px;font-family:'MV Boli';-inkscape-font-specification:'MV Boli';white-space:pre;display:none;fill:#cbcbcb;fill-opacity:1;stroke-width:1.465;stroke-dasharray:none"
       d="m 83.711198,158.10872 c -1.331383,0.20304 -1.872314,1.67981 -1.965409,2.86048 -0.878616,4.79138 -2.621805,9.40766 -3.184425,14.25689 0.04721,1.6274 2.337434,2.81145 3.510025,1.4764 1.03246,-1.14502 0.733585,-2.74692 1.124972,-4.13785 0.824819,-4.24117 2.217557,-8.36192 2.942572,-12.61998 -0.02514,-1.22421 -1.323485,-1.9299 -2.427735,-1.83594 z m -12.36914,0.3125 c -2.199138,0.48755 -3.547574,2.2942 -4.875,3.96875 -0.118938,0.34597 -0.701473,0.84563 -0.871094,0.29883 0.0055,-0.90087 0.155717,-1.88189 -0.388672,-2.6836 -0.976279,-1.70891 -3.592119,-1.69493 -4.826172,-0.2871 -3.408053,2.56289 -5.397436,6.47225 -7.242654,10.19798 -0.857351,1.90084 -1.736763,3.87901 -1.858908,5.98366 0.295413,1.67533 2.98884,2.27193 3.759765,0.64257 0.868559,-1.56976 1.224807,-3.3574 2.036316,-4.95609 1.099189,-2.60579 2.249655,-5.28376 4.178528,-7.39547 -0.574265,3.84633 -2.215977,7.48293 -2.547223,11.37495 0.192357,1.59606 2.783865,2.09725 3.446603,0.5729 1.018434,-1.64676 1.689953,-3.49838 2.900433,-5.0275 1.239856,-1.87356 2.425679,-3.80235 3.899406,-5.50629 -0.454058,3.17659 -1.488107,6.28036 -1.648438,9.49415 0.378649,1.57291 3.033536,1.95574 3.614834,0.34064 1.017426,-2.10798 0.884852,-4.46775 1.434922,-6.70712 0.431528,-2.89885 1.230217,-5.7858 1.152994,-8.7321 -0.205211,-0.95638 -1.106696,-1.90861 -2.16564,-1.57916 z m 18.261718,0.36328 c -1.314639,0.16619 -1.839934,1.60156 -1.968365,2.74576 -1.200248,4.62886 -2.851406,9.16493 -3.603989,13.89479 0.210119,1.77142 3.276958,2.16111 3.746918,0.35636 0.440276,-1.19362 0.512948,-2.53484 1.07153,-3.66097 0.328891,-0.36179 1.143338,-0.56985 1.242517,0.0971 0.664585,1.48478 -0.02301,3.35454 1.107093,4.65287 1.271329,1.14145 3.713054,-0.008 3.457665,-1.75615 0.160838,-2.09717 -0.284748,-4.28879 -1.629541,-5.96846 1.316418,-1.01044 3.034671,-2.0842 3.15625,-3.91797 -0.14103,-1.74744 -2.891182,-2.37224 -3.791015,-0.87109 -0.635137,0.65741 -1.272208,1.31173 -1.951172,1.92578 0.524467,-2.05418 1.495033,-4.04316 1.590406,-6.17586 -0.33963,-0.97232 -1.475618,-1.38388 -2.428297,-1.32219 z m 29.876954,0.36524 c -2.04815,0.0877 -3.98122,0.73033 -5.99024,1.11718 -1.29874,-1.02217 -3.41181,0.0518 -3.52734,1.65039 -0.94888,2.30988 -1.34676,4.83128 -2.2832,7.125 -0.98838,0.71759 -1.29746,2.15658 -0.75782,3.23047 -0.0358,1.62939 -0.90773,3.37248 0.0606,4.89258 0.8651,1.24863 3.10394,0.63368 3.21356,-0.8867 0.34677,-1.26485 0.47519,-2.6589 0.94464,-3.91408 0.41816,-0.5476 1.20062,-0.56621 1.79345,-0.85114 1.50765,-0.5342 3.11207,-0.71897 4.68507,-0.88909 1.42361,-0.66417 1.22164,-3.23589 -0.35938,-3.55274 -1.5273,-0.3594 -3.23981,-0.0314 -4.80468,0.27344 0.31571,-1.10056 0.43524,-2.69526 1.76486,-3.04425 2.36048,-0.88049 4.97861,-0.90572 7.24174,-2.04342 1.11967,-0.94827 0.41946,-3.21117 -1.13904,-3.09395 -0.27977,-0.0297 -0.56152,-0.0123 -0.84217,-0.0137 z m -41.654297,0.88281 c -1.912264,0.18591 -3.074998,3.05231 -1.506442,4.3314 0.438963,0.13425 0.453361,0.74952 -0.05215,0.7604 -1.428524,0.27128 -1.904506,1.88811 -2.073447,3.13989 -0.603495,2.60762 -1.683949,5.15247 -1.748819,7.85229 0.364354,1.51772 2.927103,2.05291 3.62033,0.54088 0.983923,-3.30403 1.953844,-6.62814 2.613115,-10.00998 -0.01801,-0.91083 -0.912426,-1.3579 -1.608445,-1.72816 1.176592,-0.0364 2.437339,-0.51918 2.95267,-1.65497 0.845926,-1.5146 -0.599715,-3.28291 -2.19681,-3.23175 z m 48.628907,4.00976 c -3.99399,0.78137 -7.36411,4.25545 -7.94532,8.29493 -0.26428,1.529 0.12881,3.24532 1.42969,4.20312 1.7643,1.39801 4.33703,0.99143 6.1582,-0.0801 2.65725,-1.65464 4.6303,-4.67853 4.53976,-7.87123 -0.0347,-2.19869 -1.71305,-4.86395 -4.18233,-4.54674 z m 7.43554,0.17774 c -1.34845,0.20605 -1.90351,1.73218 -1.82984,2.94159 -0.18744,2.93003 -1.43424,5.7236 -1.35766,8.6756 0.39378,1.62947 3.13669,1.94378 3.69922,0.27343 0.49517,-1.27826 0.29575,-2.69723 0.81587,-4.00073 0.36504,-1.3982 1.13941,-2.8108 2.50249,-3.44458 0.7738,1.09752 2.47711,1.35387 3.47874,0.42349 0.50855,-0.25726 0.33141,-1.04005 0.45863,-1.53708 -0.0452,-1.99278 -2.19211,-3.46306 -4.0874,-3.0115 -0.63391,0.11481 -1.21387,0.412 -1.7738,0.71884 -0.4049,-0.653 -1.10215,-1.15948 -1.90625,-1.03906 z m 14.07422,0.42383 c -2.57602,0.11707 -4.63624,2.00841 -6.02467,4.03068 -0.49051,0.57482 -0.76809,1.31749 -1.09002,2.00367 -0.69897,1.60529 -0.53143,3.84269 1.10688,4.8094 1.01381,0.64057 2.28772,0.59076 3.39258,0.23633 -0.48531,1.08293 -1.43653,2.05196 -2.6836,2.11132 -1.47069,0.35288 -2.71985,2.23137 -1.70757,3.60149 0.72452,0.95345 2.07699,0.92067 3.0797,0.48808 3.03762,-0.80167 5.03252,-3.68955 5.75087,-6.61418 0.32877,-0.85451 0.34309,-1.82595 0.88872,-2.58671 0.25872,0.89547 0.0867,1.92096 0.73366,2.69092 1.17135,1.7781 3.55334,1.99345 5.47749,1.65432 2.09798,-0.31541 4.29786,-1.41898 5.0997,-3.4667 0.21697,-1.07421 -0.77847,-2.27968 -1.91647,-1.92808 -1.00576,0.23311 0.0271,-0.37258 0.33023,-0.67898 1.23875,-1.04495 1.763,-2.9536 0.8711,-4.38281 -0.74835,-1.38067 -2.47925,-1.81744 -3.92932,-1.48146 -2.45803,0.42713 -4.26716,2.38882 -5.54529,4.40333 -0.25062,0.44761 -0.877,0.16024 -0.70846,-0.32017 0.13285,-1.15175 0.67884,-2.63144 -0.29473,-3.56219 -0.72355,-0.75754 -1.80772,-1.0525 -2.8308,-1.00826 z m -6.21093,4.11523 c 0.3711,-0.088 0.0433,-0.36261 0,0 z m -15.28516,0.18359 c 0.0608,1.68607 -1.0396,3.24507 -2.38306,4.16053 -0.49399,0.3586 -1.54233,0.43489 -1.60598,-0.36003 -0.0264,-1.27231 0.92823,-2.30205 1.7156,-3.19112 0.62302,-0.54849 1.42356,-0.93963 2.27149,-0.88086 6.5e-4,0.0905 10e-4,0.18099 0.002,0.27148 z m 14.82226,0.43946 c 0.2394,0.20621 0.17242,-0.40545 0,0 z m 16.30274,3.36523 c -0.71566,0.82246 -1.88588,0.80664 -2.86328,0.5918 0.87737,-0.46075 1.87499,-0.67693 2.86328,-0.5918 z" />
    <path
       id="path10"
       style="display:inline;opacity:1;fill:#ffffff;fill-opacity:1;stroke-width:1.465;stroke-dasharray:none"
       inkscape:label="Milk"
       d="m 84.536442,162.48156 c -0.22933,-0.0111 -0.462743,0.0819 -0.702283,0.30437 -1.336722,1.24164 0.168514,2.44169 0.833024,3.62355 0.286134,-1.10383 0.568794,-2.20831 0.82734,-3.31763 -0.313966,-0.36161 -0.631619,-0.59452 -0.958081,-0.61029 z m -26.96838,0.006 c -1.815529,2.23604 -3.162709,4.87078 -4.429703,7.429 -0.857351,1.90084 -1.736657,3.87897 -1.858802,5.98362 0.295413,1.67533 2.989053,2.27169 3.759978,0.64234 0.868558,-1.56976 1.224543,-3.35709 2.036051,-4.95577 0.897634,-2.12798 1.836746,-4.29931 3.198771,-6.17585 -0.308749,-1.44587 -0.948821,-2.70896 -2.706295,-2.92334 z m 11.816333,1.18287 c -0.12303,0.003 -0.251314,0.0254 -0.384989,0.0713 -2.941583,1.00981 -2.554821,4.58496 -5.234823,5.98878 -2.687258,1.40761 -2.960289,-0.25297 -3.199804,-2.33836 -0.709263,2.70751 -1.619573,5.37496 -1.857768,8.17366 0.192357,1.59606 2.783564,2.09744 3.446301,0.57309 1.018433,-1.64676 1.69012,-3.49848 2.900598,-5.0276 1.239855,-1.87356 2.425778,-3.80218 3.899504,-5.50612 -0.454058,3.17659 -1.488147,6.28021 -1.648478,9.49399 0.378648,1.57291 3.033469,1.95565 3.614766,0.34055 1.017425,-2.10798 0.884985,-4.46772 1.435055,-6.70708 0.0636,-0.42726 0.144568,-0.8541 0.220141,-1.28106 -1.014724,-1.14312 -1.767535,-3.81194 -3.190503,-3.78117 z m 21.757845,0.0165 c -2.543572,0.0486 -0.5132,6.40081 -1.845365,5.3821 -0.948655,-0.72544 -1.791166,-2.55351 -2.618445,-4.10363 -1.008029,3.45825 -2.081136,6.9043 -2.646867,10.45983 0.210119,1.77142 3.276582,2.16132 3.746542,0.35657 0.440275,-1.19362 0.513187,-2.53515 1.071769,-3.66128 0.328891,-0.36179 1.143122,-0.56979 1.242301,0.0972 0.664585,1.48477 -0.02268,3.35461 1.107426,4.65294 1.271328,1.14145 3.713059,-0.008 3.45767,-1.75596 0.160838,-2.09717 -0.285083,-4.28896 -1.629874,-5.96863 0.724626,-0.5562 1.562986,-1.13666 2.197798,-1.84743 -0.603625,-1.41038 -1.455321,-2.56343 -2.653068,-3.18482 -0.06536,0.0742 -0.126012,0.15447 -0.179317,0.24339 -0.635136,0.65741 -1.272339,1.31142 -1.951302,1.92547 0.221934,-0.86925 0.520958,-1.72726 0.802535,-2.58899 -0.03329,-0.001 -0.06996,-0.007 -0.101803,-0.007 z m -13.554211,1.15032 c -2.220001,0.0949 -2.427277,1.9325 -3.258716,2.74712 -0.05114,0.23014 -0.105575,0.46295 -0.134875,0.68006 -0.603495,2.60762 -1.683861,5.15241 -1.748731,7.85223 0.364354,1.51772 2.927225,2.05308 3.620451,0.54105 0.983922,-3.30402 1.95349,-6.6284 2.61276,-10.01024 -0.01801,-0.91083 -0.912152,-1.3578 -1.60817,-1.72806 0.20452,-0.006 0.410218,-0.0452 0.615466,-0.0796 -0.03094,6.4e-4 -0.068,-0.004 -0.09819,-0.003 z m 3.019971,1.03869 c -0.807206,3.09294 -1.677645,6.17215 -2.046387,9.35034 0.04721,1.6274 2.337273,2.81144 3.509863,1.47639 1.032459,-1.14502 0.73361,-2.7468 1.124996,-4.13773 0.262593,-1.35024 0.58768,-2.68732 0.925525,-4.02146 -0.321281,0.21945 -0.744604,0.43853 -1.307414,0.65784 -3.936362,1.53389 -1.031627,-1.59405 -2.206583,-3.32538 z" />
    <path
       style="display:none;opacity:1;fill:#ffffff;fill-opacity:1;stroke-width:1.465;stroke-dasharray:none"
       d="m 49.873958,165.89375 c 0,0 1.190625,-3.43959 7.14375,-3.43959 5.953125,0 1.190625,10.18647 6.746875,7.27605 2.680004,-1.40382 2.293387,-4.97874 5.234973,-5.98855 2.138805,-0.73422 2.837713,4.41576 4.57178,4.21958 1.842768,-0.20847 1.111611,-3.86674 5.406788,-2.99353 4.537388,0.92244 -1.019574,6.12559 3.836458,4.23333 5.374804,-2.09441 -1.378343,-4.18795 1.019436,-6.41518 1.916317,-1.78001 3.452557,4.7456 5.462856,6.28289 1.522476,1.16424 -1.347006,-7.29886 3.238598,-4.97707 5.327178,2.69728 3.905152,15.82498 3.905152,15.82498 l -15.213542,1.98438 -24.341666,-1.71979 -10.186458,-1.05834 z"
       id="path11"
       sodipodi:nodetypes="csssssssssccccc"
       inkscape:label="Milk" />
    <path
       d="m 141.02912,167.35051 c 0.18464,-0.006 0.39249,0.003 0.60048,0.0134 0.006,0.0638 0.0275,0.12268 0.0289,0.18759 -0.12722,0.49703 0.0497,1.28011 -0.45889,1.53737 -0.91033,0.84558 -2.39257,0.70255 -3.23753,-0.15296 0.57475,-0.7593 1.30862,-1.52514 3.067,-1.58543 z m 0.84181,1.22628 c 0.0148,-7e-5 0.0285,0.005 0.0388,0.0134 0.041,0.0343 0.03,0.12498 -0.15554,0.16898 0.0162,-0.13598 0.0724,-0.18222 0.11679,-0.18242 z m -0.47336,0.66353 c 0.0804,-0.009 0.0731,0.29625 -0.10645,0.14159 0.0431,-0.10136 0.0797,-0.1387 0.10645,-0.14159 z m 15.45539,3.49901 c 0.24621,-0.0155 0.49397,-0.013 0.74104,0.008 -0.71566,0.82244 -1.88599,0.80653 -2.86339,0.59169 0.65802,-0.34556 1.38371,-0.55348 2.12235,-0.59996 z"
       style="display:inline;opacity:1;fill:#f01d00;stroke-width:1.63562"
       id="path36" />
    <path
       d="m 149.69009,164.9951 c -0.28586,-0.0111 -0.57733,0.0819 -0.87592,0.30437 -2.98878,2.22722 5.42887,4.32072 -1.27072,6.41511 -6.01696,1.88101 0.78669,-3.24756 -4.68757,-4.21473 -0.32855,0.37937 -0.63921,0.77188 -0.91571,1.17461 -0.49051,0.57482 -0.76792,1.31783 -1.08985,2.00401 -0.69897,1.60529 -0.5314,3.8423 1.10691,4.80901 1.0138,0.64057 2.28771,0.59111 3.39255,0.23668 -0.4853,1.08292 -1.43649,2.05162 -2.68355,2.11098 -1.47069,0.35288 -2.71967,2.23173 -1.70739,3.60185 0.72452,0.95344 2.07669,0.92041 3.0794,0.48782 3.0376,-0.80166 5.03272,-3.68945 5.75107,-6.61406 0.32877,-0.85451 0.3432,-1.82617 0.88883,-2.58693 0.25872,0.89547 0.0863,1.92135 0.73329,2.69131 1.17135,1.7781 3.55356,1.99328 5.4777,1.65417 2.09798,-0.31541 4.29811,-1.41926 5.09995,-3.46698 0.21697,-1.0742 -0.77868,-2.27964 -1.91668,-1.92804 -1.00576,0.23311 0.0271,-0.37263 0.33021,-0.67903 0.86889,-0.73295 1.37287,-1.88981 1.29656,-3.00912 -0.57148,-0.58195 -1.24321,-1.05769 -2.03863,-1.3808 -5.71589,-2.32177 -2.13924,6.1412 -4.03696,4.97696 -1.01697,-0.6239 -1.93529,-2.06316 -2.82877,-3.44165 -0.36163,0.44939 -0.69467,0.9191 -0.99581,1.39371 -0.25062,0.44761 -0.87702,0.16054 -0.70848,-0.31987 0.13285,-1.15175 0.67901,-2.63183 -0.29456,-3.56258 -0.26611,-0.2786 -0.59057,-0.47497 -0.93327,-0.63458 -0.0574,-0.0105 -0.1148,-0.02 -0.1726,-0.0222 z m -19.62878,1.34927 c -2.08921,0.68707 -2.75171,2.25843 -3.71915,3.68504 -0.31643,1.25205 -1.20829,2.35965 -2.25619,3.07372 -0.49399,0.3586 -1.54246,0.43473 -1.60611,-0.36019 -4.9e-4,-0.0238 0.005,-0.0461 0.005,-0.0698 -2.4831,0.53795 -2.46792,-1.52764 -2.80913,-3.65869 -0.58674,1.0261 -0.99693,2.14902 -1.16582,3.32279 -0.26428,1.529 0.12901,3.24505 1.42989,4.20285 1.76428,1.398 4.3366,0.99142 6.15776,-0.0801 2.65724,-1.65463 4.63031,-4.67815 4.53977,-7.87084 -0.0117,-0.74131 -0.22347,-1.52963 -0.57619,-2.24482 z m 2.0066,0.31729 c -0.0131,0.16963 -0.0166,0.33804 -0.007,0.50023 -0.18744,2.93001 -1.43464,5.72345 -1.35806,8.67544 0.39378,1.62946 3.13699,1.94371 3.69952,0.27337 0.49517,-1.27826 0.29585,-2.6973 0.81597,-4.00079 0.14805,-0.56707 0.38436,-1.12339 0.67903,-1.64228 -1.52923,-0.009 -2.41768,-2.68956 -3.82974,-3.80597 z"
       style="display:inline;opacity:1;fill:#f01d00;stroke-width:1.63562"
       id="path35" />
    <path
       d="m 130.06131,166.34437 c 0.35272,0.7152 0.56449,1.5035 0.57619,2.24482 0.0905,3.1927 -1.88252,6.2162 -4.53977,7.87084 -1.82117,1.07153 -4.39348,1.47811 -6.15776,0.0801 -1.30088,-0.9578 -1.69417,-2.67385 -1.42989,-4.20285 0.16889,-1.17377 0.57908,-2.29668 1.16582,-3.32279 0.34121,2.13106 0.32602,4.19664 2.80913,3.65869 -1.9e-4,0.0237 -0.006,0.0459 -0.005,0.0698 0.0636,0.79492 1.11212,0.71879 1.60611,0.36019 1.0479,-0.71407 1.93976,-1.82167 2.25619,-3.07372 0.96745,-1.42661 1.62993,-2.99797 3.71915,-3.68504 z"
       style="display:inline;opacity:1;fill:#f01d00;stroke-width:1.63562"
       id="path34" />
    <path
       d="m 113.19102,165.08656 c -2.14263,0.23034 -3.63452,0.77806 -4.65346,1.36891 -0.2515,0.87744 -0.51567,1.74885 -0.85783,2.58693 -0.98838,0.71757 -1.29721,2.1564 -0.75757,3.23029 -0.0358,1.62939 -0.90787,3.37262 0.0605,4.89272 0.8651,1.24863 3.10413,0.6336 3.21375,-0.88676 0.34677,-1.26485 0.4752,-2.6588 0.94465,-3.91398 0.41816,-0.5476 1.20034,-0.56618 1.79317,-0.85111 1.50765,-0.5342 3.11252,-0.71923 4.6855,-0.88935 1.42361,-0.66417 1.22134,-3.2359 -0.35966,-3.55275 -1.5273,-0.3594 -3.24001,-0.0315 -4.80488,0.27336 0.20182,-0.70352 0.32705,-1.60536 0.73587,-2.25826 z"
       style="display:inline;opacity:1;fill:#f01d00;stroke-width:1.63562"
       id="path33" />
  </g>
  <g
     inkscape:groupmode="layer"
     id="layer2"
     inkscape:label="Logo 2"
     transform="matrix(1.1134128,0,0,1.1134128,-37.562042,-206.07223)">
    <g
       id="g82"
       inkscape:label="Milk blur"
       style="fill:#4a4a4a;fill-opacity:1;filter:url(#filter88)">
      <path
         d="m 57.435254,189.02826 c -2.231161,0.18685 -3.697127,2.12083 -5.0245,3.70778 -0.482713,0.58598 -0.941006,1.19301 -1.380277,1.81177 0.287672,-1.40349 0.707089,-3.17204 -0.457337,-4.30309 -0.954821,-1.03545 -2.670239,-1.23446 -3.789432,-0.34417 -2.701887,1.63597 -4.458126,4.38106 -6.069914,7.0156 -1.569414,2.74794 -2.913676,5.65597 -3.737756,8.71574 -0.209504,1.11921 0.479154,2.40552 1.680517,2.53525 1.224117,0.24895 2.421694,-0.75146 2.566769,-1.9575 1.512902,-4.05906 3.071775,-8.22177 5.829101,-11.62255 -0.657213,3.79092 -2.080233,7.40966 -2.687691,11.20707 -0.08974,1.37684 1.611093,2.57236 2.808614,1.71669 1.340264,-0.88084 1.460213,-2.65357 2.381767,-3.86488 1.483649,-2.4237 3.112469,-4.75782 4.759399,-7.07141 0.501451,-0.80535 0.484113,-0.43273 0.28267,0.29249 -0.56048,2.81897 -1.289073,5.62158 -1.671732,8.46564 0.0953,1.40865 1.987768,2.54172 3.130558,1.48879 1.387216,-1.24324 1.166486,-3.27282 1.588533,-4.92528 0.543106,-3.52875 1.314367,-7.02993 1.67535,-10.5885 -0.03379,-1.04922 -0.708143,-2.27452 -1.884639,-2.27944 z"
         style="font-size:22.5778px;font-family:'MV Boli';-inkscape-font-specification:'MV Boli';display:inline;fill:#4a4a4a;fill-opacity:1;stroke-width:1.465"
         id="path79" />
      <path
         d="m 64.737651,189.43081 c -1.405735,0.0352 -2.419736,1.39836 -2.472201,2.7249 -1.166781,4.19543 -2.420124,8.37037 -3.289205,12.64006 -0.327618,1.04301 -0.516582,2.54237 0.640271,3.15071 1.405984,0.75148 3.355521,-0.3529 3.388941,-1.96525 0.503898,-2.7288 0.916799,-5.44959 1.886189,-8.06721 0.634123,-2.11978 1.686487,-4.15826 1.902727,-6.37584 -0.09857,-1.05131 -0.909736,-2.15694 -2.056722,-2.10737 z"
         style="font-size:22.5778px;font-family:'MV Boli';-inkscape-font-specification:'MV Boli';display:inline;fill:#4a4a4a;fill-opacity:1;stroke-width:1.465"
         id="path80" />
      <path
         d="m 71.196688,189.65147 c -1.488601,0.0309 -2.360276,1.61013 -2.339392,2.95486 -0.790463,3.92746 -2.521488,7.6637 -3.335197,11.60756 -0.161428,1.22283 0.584051,2.38899 1.653129,2.93522 1.251787,0.8499 2.87247,0.57367 4.175972,0.005 2.317791,-0.80129 4.624706,-1.66215 6.870899,-2.64325 1.269428,-0.74605 1.709211,-2.86166 0.394291,-3.77341 -1.089062,-0.66985 -2.241726,0.20491 -3.273185,0.55862 -1.725079,0.70977 -3.419691,1.52348 -5.232239,1.99213 0.761613,-3.77802 2.491043,-7.26942 3.204972,-11.06289 0.09293,-1.22798 -0.738802,-2.67514 -2.11925,-2.57401 z"
         style="font-size:22.5778px;font-family:'MV Boli';-inkscape-font-specification:'MV Boli';display:inline;fill:#4a4a4a;fill-opacity:1;stroke-width:1.465"
         id="path81" />
      <path
         d="m 92.513216,189.88402 c -1.350079,0.056 -1.902321,1.47134 -2.547131,2.42724 -1.494866,1.69498 -2.923865,3.47672 -4.708757,4.88291 0.586569,-1.85686 1.340066,-3.84282 0.891419,-5.80637 -0.729335,-1.67797 -3.625196,-1.25965 -3.875733,0.54467 -1.015848,4.30424 -2.291268,8.55602 -3.038574,12.91652 -0.122358,1.21117 0.257741,2.89243 1.667082,3.11764 1.446954,0.25291 2.637982,-1.2681 2.439644,-2.63394 0.07387,-0.94169 0.131754,-1.89319 0.382923,-2.8081 0.802003,-0.31756 1.702298,-0.8833 2.556949,-0.40101 1.875234,0.46748 3.381736,2.20528 3.40031,4.16615 0.144341,1.20762 1.26009,2.38737 2.550748,2.07068 1.433109,-0.2067 2.42258,-1.88651 1.78077,-3.22048 -0.585419,-2.60611 -2.226012,-5.04972 -4.630725,-6.28954 1.947673,-1.7549 3.838847,-3.66511 5.146456,-5.94692 0.22229,-1.30486 -0.456572,-3.07685 -2.015381,-3.01945 z"
         style="font-size:22.5778px;font-family:'MV Boli';-inkscape-font-specification:'MV Boli';display:inline;fill:#4a4a4a;fill-opacity:1;stroke-width:1.465"
         id="path82" />
    </g>
    <g
       id="g76"
       inkscape:label="Milk text"
       style="fill:#3f4a55;fill-opacity:1">
      <path
         d="m 57.435254,189.02826 c -2.231161,0.18685 -3.697127,2.12083 -5.0245,3.70778 -0.482713,0.58598 -0.941006,1.19301 -1.380277,1.81177 0.287672,-1.40349 0.707089,-3.17204 -0.457337,-4.30309 -0.954821,-1.03545 -2.670239,-1.23446 -3.789432,-0.34417 -2.701887,1.63597 -4.458126,4.38106 -6.069914,7.0156 -1.569414,2.74794 -2.913676,5.65597 -3.737756,8.71574 -0.209504,1.11921 0.479154,2.40552 1.680517,2.53525 1.224117,0.24895 2.421694,-0.75146 2.566769,-1.9575 1.512902,-4.05906 3.071775,-8.22177 5.829101,-11.62255 -0.657213,3.79092 -2.080233,7.40966 -2.687691,11.20707 -0.08974,1.37684 1.611093,2.57236 2.808614,1.71669 1.340264,-0.88084 1.460213,-2.65357 2.381767,-3.86488 1.483649,-2.4237 3.112469,-4.75782 4.759399,-7.07141 0.501451,-0.80535 0.484113,-0.43273 0.28267,0.29249 -0.56048,2.81897 -1.289073,5.62158 -1.671732,8.46564 0.0953,1.40865 1.987768,2.54172 3.130558,1.48879 1.387216,-1.24324 1.166486,-3.27282 1.588533,-4.92528 0.543106,-3.52875 1.314367,-7.02993 1.67535,-10.5885 -0.03379,-1.04922 -0.708143,-2.27452 -1.884639,-2.27944 z"
         style="font-size:22.5778px;font-family:'MV Boli';-inkscape-font-specification:'MV Boli';display:inline;fill:#000000;fill-opacity:1;stroke-width:1.465"
         id="path63" />
      <path
         d="m 64.737651,189.43081 c -1.405735,0.0352 -2.419736,1.39836 -2.472201,2.7249 -1.166781,4.19543 -2.420124,8.37037 -3.289205,12.64006 -0.327618,1.04301 -0.516582,2.54237 0.640271,3.15071 1.405984,0.75148 3.355521,-0.3529 3.388941,-1.96525 0.503898,-2.7288 0.916799,-5.44959 1.886189,-8.06721 0.634123,-2.11978 1.686487,-4.15826 1.902727,-6.37584 -0.09857,-1.05131 -0.909736,-2.15694 -2.056722,-2.10737 z"
         style="font-size:22.5778px;font-family:'MV Boli';-inkscape-font-specification:'MV Boli';display:inline;fill:#000000;fill-opacity:1;stroke-width:1.465"
         id="path62" />
      <path
         d="m 71.196688,189.65147 c -1.488601,0.0309 -2.360276,1.61013 -2.339392,2.95486 -0.790463,3.92746 -2.521488,7.6637 -3.335197,11.60756 -0.161428,1.22283 0.584051,2.38899 1.653129,2.93522 1.251787,0.8499 2.87247,0.57367 4.175972,0.005 2.317791,-0.80129 4.624706,-1.66215 6.870899,-2.64325 1.269428,-0.74605 1.709211,-2.86166 0.394291,-3.77341 -1.089062,-0.66985 -2.241726,0.20491 -3.273185,0.55862 -1.725079,0.70977 -3.419691,1.52348 -5.232239,1.99213 0.761613,-3.77802 2.491043,-7.26942 3.204972,-11.06289 0.09293,-1.22798 -0.738802,-2.67514 -2.11925,-2.57401 z"
         style="font-size:22.5778px;font-family:'MV Boli';-inkscape-font-specification:'MV Boli';display:inline;fill:#000000;fill-opacity:1;stroke-width:1.465"
         id="path61" />
      <path
         d="m 92.513216,189.88402 c -1.350079,0.056 -1.902321,1.47134 -2.547131,2.42724 -1.494866,1.69498 -2.923865,3.47672 -4.708757,4.88291 0.586569,-1.85686 1.340066,-3.84282 0.891419,-5.80637 -0.729335,-1.67797 -3.625196,-1.25965 -3.875733,0.54467 -1.015848,4.30424 -2.291268,8.55602 -3.038574,12.91652 -0.122358,1.21117 0.257741,2.89243 1.667082,3.11764 1.446954,0.25291 2.637982,-1.2681 2.439644,-2.63394 0.07387,-0.94169 0.131754,-1.89319 0.382923,-2.8081 0.802003,-0.31756 1.702298,-0.8833 2.556949,-0.40101 1.875234,0.46748 3.381736,2.20528 3.40031,4.16615 0.144341,1.20762 1.26009,2.38737 2.550748,2.07068 1.433109,-0.2067 2.42258,-1.88651 1.78077,-3.22048 -0.585419,-2.60611 -2.226012,-5.04972 -4.630725,-6.28954 1.947673,-1.7549 3.838847,-3.66511 5.146456,-5.94692 0.22229,-1.30486 -0.456572,-3.07685 -2.015381,-3.01945 z"
         style="font-size:22.5778px;font-family:'MV Boli';-inkscape-font-specification:'MV Boli';display:inline;fill:#000000;fill-opacity:1;stroke-width:1.465"
         id="path60" />
    </g>
    <path
       style="display:inline;opacity:1;fill:#ffffff;fill-opacity:1;stroke-width:1.65291;stroke-dasharray:none"
       d="m 36.585495,200.28959 c 0,0 1.515655,-3.43959 9.093928,-3.43959 7.578273,0 -3.769595,9.95262 3.303455,7.04219 1.914571,-0.78781 3.966868,-5.72456 6.525927,-6.47953 3.405585,-1.00471 2.995697,7.19012 3.832174,7.49761 1.012584,0.37222 2.842913,-1.75935 3.368567,-5.3696 0.267674,-1.83842 0.23077,-0.2276 1.316277,1.22103 0.05113,0.0682 1.279754,-3.82919 4.050581,-5.42219 1.453515,-0.83565 2.801835,-1.75335 2.951148,-2.52051 0.52294,-2.68683 -5.05566,-1.84508 -5.545594,-2.29939 -0.657656,-0.60983 -6.437656,2.54164 -10.426013,3.22183 -2.410214,0.41105 -3.074397,-2.01193 -4.665363,-1.21599 -1.462622,0.73173 -1.620307,3.0636 -1.557366,3.54568 0.249013,1.90727 2.186062,2.57979 3.873651,0.89432 1.623229,-1.62119 8.192862,-1.9441 8.74104,-1.7393 1.29358,0.48329 2.174445,2.47772 3.387211,1.7826 2.08671,-1.19604 0.952008,5.18473 1.066017,5.2425 0.406902,0.20615 0.555476,0.13209 0.850903,0.10583 2.345825,-0.20849 -1.250943,-6.57953 4.216777,-5.70632 5.776053,0.92244 -3.402656,10.24155 2.779029,8.34929 6.842075,-2.09441 5.775701,-6.10561 8.828051,-8.33284 2.439454,-1.78001 1.261338,3.01503 3.820431,4.55232 1.938097,1.16424 -1.340545,-5.05381 4.496882,-2.73201 0.808473,0.32157 1.494832,0.79138 2.076703,1.36952 0.379493,0.37706 1.309854,2.78458 1.539201,-3.10728 0.008,-0.20526 -3.999621,1.44072 -2.863949,-0.37387 0.664829,-1.06227 -1.557933,-2.52608 -1.96266,-2.1713 -1.143438,1.00231 -1.542038,-2.24286 -2.267549,-2.49037 -2.941154,-1.00341 -2.969954,1.41262 -2.859497,2.75006 0.228484,2.76652 14.901595,5.0363 15.918113,1.35029 1.21986,-4.42334 -4.60914,18.49793 -4.60914,18.49793 l -19.366699,1.98438 -30.986715,-1.71979 -12.967266,-1.05834 z"
       id="path49"
       sodipodi:nodetypes="csssssssssssssssssssssssssssssccccc"
       inkscape:label="Milk milk"
       clip-path="url(#clipPath52)" />
    <g
       id="g87"
       inkscape:label="Forge blur"
       style="fill:#900000;fill-opacity:1;filter:url(#filter87)">
      <path
         d="m 179.12705,189.75328 c -0.34866,-0.005 -0.69884,0.0125 -1.04541,0.0171 -1.6962,0.0934 -3.31251,0.6648 -4.97644,0.95343 -0.93388,-1.19461 -3.09592,-0.77983 -3.55069,0.66146 -1.65713,2.95495 -2.00321,6.39843 -3.20239,9.53172 -0.52764,1.73002 -1.25031,3.46829 -1.28054,5.29476 0.19608,1.35216 1.66274,2.19988 2.95589,1.95492 2.94422,-0.0395 5.72692,-1.27822 8.22585,-2.73988 0.89716,-0.58478 1.77837,-1.86141 1.04128,-2.88872 -0.89224,-1.08843 -2.52136,-0.71405 -3.58892,-0.11575 -1.30364,0.63335 -2.59527,1.4277 -4.06384,1.57665 0.23077,-0.53663 0.17039,-1.2192 0.53124,-1.67587 2.39875,-0.75264 4.68273,-1.83341 7.08793,-2.56418 1.05186,-0.4674 2.01669,-1.76179 1.38907,-2.90835 -0.71307,-1.06984 -2.16551,-0.73894 -3.18585,-0.39068 -1.29491,0.35702 -2.57641,0.8031 -3.8592,1.17202 0.32733,-1.12378 0.74039,-2.57076 2.08514,-2.80241 1.91048,-0.62715 3.86767,-1.09461 5.85598,-1.38699 0.8969,-0.17435 1.95005,-0.63347 2.03708,-1.67587 0.18576,-0.918 -0.51903,-1.77144 -1.4211,-1.89032 -0.33923,-0.0891 -0.68642,-0.11769 -1.03508,-0.12299 z m -1.46761,2.96054 c 0.0933,0.33847 -0.29033,-0.0883 0,0 z"
         style="font-size:22.5778px;font-family:'MV Boli';-inkscape-font-specification:'MV Boli';display:inline;fill:#900000;fill-opacity:1;stroke-width:1.465"
         id="path83" />
      <path
         d="m 161.88831,189.33263 v 5.2e-4 c -3.29777,0.35499 -5.97596,2.61912 -8.18503,4.92424 -2.06531,2.26122 -3.8257,5.15892 -3.70572,8.32146 0.31112,2.98793 3.38763,5.47869 6.39031,4.82348 3.13305,-0.536 5.99324,-2.42724 7.86412,-4.97593 0.89585,-1.29833 1.62373,-2.84919 1.55391,-4.45502 -0.22727,-1.55859 -1.9616,-2.6901 -3.47421,-2.17196 -1.68064,0.32576 -3.18276,1.31358 -4.91287,1.42627 -1.56339,0.3643 -2.38107,2.56275 -1.18288,3.7424 0.75026,0.828 2.04832,0.7582 2.92902,0.19379 0.33659,-0.0489 1.66656,-0.75452 1.0449,-0.16278 -1.13188,1.20398 -2.67167,2.19353 -4.28863,2.52439 -1.38609,-0.0372 -2.27987,-1.77238 -1.56786,-2.94762 1.02914,-2.95967 3.55571,-5.12655 6.20789,-6.63215 0.55906,-0.29674 1.33639,-0.64827 1.80196,-0.0336 0.70711,0.67063 1.99561,0.92893 2.63446,0.0243 1.05585,-1.29932 0.49076,-3.43996 -1.03094,-4.10931 -0.63355,-0.34162 -1.36189,-0.49646 -2.07843,-0.49248 z"
         style="font-size:22.5778px;font-family:'MV Boli';-inkscape-font-specification:'MV Boli';display:inline;fill:#900000;fill-opacity:1;stroke-width:1.465"
         id="path84" />
      <path
         d="m 139.66176,188.90888 c -1.66024,-0.0615 -2.66101,1.78761 -2.46652,3.27009 0.13842,2.24793 -0.91416,4.32688 -1.30276,6.50141 -0.61443,2.50753 -1.53297,4.97819 -1.74976,7.55819 0.16246,1.48755 2.29178,2.23018 3.2768,1.04335 0.9042,-0.96357 0.8572,-2.38482 1.31775,-3.55999 0.20647,-0.77288 0.41313,-1.54585 0.6196,-2.31872 0.84625,0.0457 1.78863,-0.33009 2.51509,0.28164 1.89871,1.06011 2.57092,3.26919 3.56412,5.05447 0.67323,0.98941 2.2149,1.29555 3.09646,0.40411 1.09028,-0.91508 1.05392,-2.65639 0.17466,-3.70055 -0.87917,-1.69811 -1.94424,-3.37541 -3.50831,-4.52221 2.07569,-1.09339 4.26748,-2.69999 4.72116,-5.15472 0.31961,-2.17743 -1.53666,-4.21258 -3.65714,-4.45192 -2.06264,-0.44492 -4.23486,0.22166 -6.2389,-0.37879 -0.11943,-0.0196 -0.2422,-0.0202 -0.36225,-0.0264 z m 3.77496,4.45916 c 0.71435,0.0617 1.50778,-0.11935 2.16214,0.23048 -0.54111,0.95083 -1.62764,1.38558 -2.48977,1.98954 -0.80917,0.46993 -1.66109,0.8604 -2.51767,1.23507 0.31315,-1.06576 0.62633,-2.13146 0.93948,-3.19722 0.60937,-0.1756 1.24571,-0.23001 1.90582,-0.25787 z"
         style="font-size:22.5778px;font-family:'MV Boli';-inkscape-font-specification:'MV Boli';display:inline;fill:#900000;fill-opacity:1;stroke-width:1.465"
         id="path85" />
      <path
         d="m 127.15761,189.99305 c -1.90799,0.0583 -3.11273,1.75089 -4.38474,2.93523 -2.54728,2.69177 -4.79708,6.04161 -4.96249,9.85521 -0.0182,2.33426 1.56882,4.75508 3.9672,5.15524 3.42862,0.81146 6.95322,-0.9365 9.28832,-3.38274 2.66083,-2.76758 4.22681,-6.88263 3.21789,-10.6872 -0.56711,-2.00996 -2.39676,-3.89768 -4.61832,-3.69022 -0.46727,0.0295 -0.92086,0.40265 -1.32653,0.0351 -0.37092,-0.16029 -0.78107,-0.20985 -1.18133,-0.22066 z m 2.27738,4.03128 0.0972,0.0248 0.003,5.1e-4 c 1.24899,0.50575 1.30587,2.11612 0.98909,3.2334 -0.59861,2.86998 -2.56086,5.59952 -5.36195,6.63835 -0.98091,0.31979 -2.33057,0.46027 -3.05873,-0.41858 -0.58688,-1.22492 0.25645,-2.53549 0.71779,-3.65714 0.95607,-1.90469 2.33792,-3.6044 3.87211,-5.05189 0.92449,0.52732 2.21317,0.14201 2.74195,-0.76946 z"
         style="font-size:22.5778px;font-family:'MV Boli';-inkscape-font-specification:'MV Boli';display:inline;fill:#900000;fill-opacity:1;stroke-width:1.465"
         id="path86" />
      <path
         d="m 119.56169,189.82769 c -0.21913,-0.0252 -0.44194,-0.0228 -0.65577,0.004 -0.0393,0.11372 -0.0754,-0.0218 -0.11162,-0.002 -2.10654,0.018 -4.11104,0.73943 -6.15983,1.13481 -1.09421,-0.97646 -3.03179,-0.24277 -3.31453,1.16789 -1.05147,2.35348 -1.46246,4.9146 -2.31097,7.32927 -0.37959,0.58174 -1.03985,1.00813 -1.12654,1.76475 -0.19091,0.60656 0.0328,1.2405 0.24339,1.78077 -0.1443,1.62082 -0.95015,3.47914 0.10025,4.95732 0.91221,1.08312 3.0191,0.52492 3.10679,-0.95033 0.36807,-1.36206 0.57135,-2.78557 0.99064,-4.12223 1.96197,-0.9008 4.1043,-1.48504 6.28127,-1.5136 1.52412,-0.53693 1.60555,-3.19518 -0.0656,-3.57446 -1.63455,-0.43175 -3.35489,-0.1546 -4.96352,0.25632 0.30607,-0.91921 0.42381,-2.0193 1.12189,-2.72594 2.13014,-1.02592 4.50686,-1.30602 6.78822,-1.80557 1.12267,-0.26287 2.11531,-1.4877 1.61334,-2.64635 -0.25512,-0.65609 -0.87998,-0.97863 -1.53738,-1.0542 z"
         style="font-size:22.5778px;font-family:'MV Boli';-inkscape-font-specification:'MV Boli';display:inline;fill:#900000;fill-opacity:1;stroke-width:1.465"
         id="path87" />
    </g>
    <g
       id="g75"
       inkscape:label="Forge text">
      <path
         d="m 179.12705,189.75328 c -0.34866,-0.005 -0.69884,0.0125 -1.04541,0.0171 -1.6962,0.0934 -3.31251,0.6648 -4.97644,0.95343 -0.93388,-1.19461 -3.09592,-0.77983 -3.55069,0.66146 -1.65713,2.95495 -2.00321,6.39843 -3.20239,9.53172 -0.52764,1.73002 -1.25031,3.46829 -1.28054,5.29476 0.19608,1.35216 1.66274,2.19988 2.95589,1.95492 2.94422,-0.0395 5.72692,-1.27822 8.22585,-2.73988 0.89716,-0.58478 1.77837,-1.86141 1.04128,-2.88872 -0.89224,-1.08843 -2.52136,-0.71405 -3.58892,-0.11575 -1.30364,0.63335 -2.59527,1.4277 -4.06384,1.57665 0.23077,-0.53663 0.17039,-1.2192 0.53124,-1.67587 2.39875,-0.75264 4.68273,-1.83341 7.08793,-2.56418 1.05186,-0.4674 2.01669,-1.76179 1.38907,-2.90835 -0.71307,-1.06984 -2.16551,-0.73894 -3.18585,-0.39068 -1.29491,0.35702 -2.57641,0.8031 -3.8592,1.17202 0.32733,-1.12378 0.74039,-2.57076 2.08514,-2.80241 1.91048,-0.62715 3.86767,-1.09461 5.85598,-1.38699 0.8969,-0.17435 1.95005,-0.63347 2.03708,-1.67587 0.18576,-0.918 -0.51903,-1.77144 -1.4211,-1.89032 -0.33923,-0.0891 -0.68642,-0.11769 -1.03508,-0.12299 z m -1.46761,2.96054 c 0.0933,0.33847 -0.29033,-0.0883 0,0 z"
         style="font-size:22.5778px;font-family:'MV Boli';-inkscape-font-specification:'MV Boli';display:inline;fill:#ff5c0f;fill-opacity:1;stroke-width:1.465"
         id="path59" />
      <path
         d="m 161.88831,189.33263 v 5.2e-4 c -3.29777,0.35499 -5.97596,2.61912 -8.18503,4.92424 -2.06531,2.26122 -3.8257,5.15892 -3.70572,8.32146 0.31112,2.98793 3.38763,5.47869 6.39031,4.82348 3.13305,-0.536 5.99324,-2.42724 7.86412,-4.97593 0.89585,-1.29833 1.62373,-2.84919 1.55391,-4.45502 -0.22727,-1.55859 -1.9616,-2.6901 -3.47421,-2.17196 -1.68064,0.32576 -3.18276,1.31358 -4.91287,1.42627 -1.56339,0.3643 -2.38107,2.56275 -1.18288,3.7424 0.75026,0.828 2.04832,0.7582 2.92902,0.19379 0.33659,-0.0489 1.66656,-0.75452 1.0449,-0.16278 -1.13188,1.20398 -2.67167,2.19353 -4.28863,2.52439 -1.38609,-0.0372 -2.27987,-1.77238 -1.56786,-2.94762 1.02914,-2.95967 3.55571,-5.12655 6.20789,-6.63215 0.55906,-0.29674 1.33639,-0.64827 1.80196,-0.0336 0.70711,0.67063 1.99561,0.92893 2.63446,0.0243 1.05585,-1.29932 0.49076,-3.43996 -1.03094,-4.10931 -0.63355,-0.34162 -1.36189,-0.49646 -2.07843,-0.49248 z"
         style="font-size:22.5778px;font-family:'MV Boli';-inkscape-font-specification:'MV Boli';display:inline;fill:#ff5c0f;fill-opacity:1;stroke-width:1.465"
         id="path58" />
      <path
         d="m 139.66176,188.90888 c -1.66024,-0.0615 -2.66101,1.78761 -2.46652,3.27009 0.13842,2.24793 -0.91416,4.32688 -1.30276,6.50141 -0.61443,2.50753 -1.53297,4.97819 -1.74976,7.55819 0.16246,1.48755 2.29178,2.23018 3.2768,1.04335 0.9042,-0.96357 0.8572,-2.38482 1.31775,-3.55999 0.20647,-0.77288 0.41313,-1.54585 0.6196,-2.31872 0.84625,0.0457 1.78863,-0.33009 2.51509,0.28164 1.89871,1.06011 2.57092,3.26919 3.56412,5.05447 0.67323,0.98941 2.2149,1.29555 3.09646,0.40411 1.09028,-0.91508 1.05392,-2.65639 0.17466,-3.70055 -0.87917,-1.69811 -1.94424,-3.37541 -3.50831,-4.52221 2.07569,-1.09339 4.26748,-2.69999 4.72116,-5.15472 0.31961,-2.17743 -1.53666,-4.21258 -3.65714,-4.45192 -2.06264,-0.44492 -4.23486,0.22166 -6.2389,-0.37879 -0.11943,-0.0196 -0.2422,-0.0202 -0.36225,-0.0264 z m 3.77496,4.45916 c 0.71435,0.0617 1.50778,-0.11935 2.16214,0.23048 -0.54111,0.95083 -1.62764,1.38558 -2.48977,1.98954 -0.80917,0.46993 -1.66109,0.8604 -2.51767,1.23507 0.31315,-1.06576 0.62633,-2.13146 0.93948,-3.19722 0.60937,-0.1756 1.24571,-0.23001 1.90582,-0.25787 z"
         style="font-size:22.5778px;font-family:'MV Boli';-inkscape-font-specification:'MV Boli';display:inline;fill:#ff5c0f;fill-opacity:1;stroke-width:1.465"
         id="path57" />
      <path
         d="m 127.15761,189.99305 c -1.90799,0.0583 -3.11273,1.75089 -4.38474,2.93523 -2.54728,2.69177 -4.79708,6.04161 -4.96249,9.85521 -0.0182,2.33426 1.56882,4.75508 3.9672,5.15524 3.42862,0.81146 6.95322,-0.9365 9.28832,-3.38274 2.66083,-2.76758 4.22681,-6.88263 3.21789,-10.6872 -0.56711,-2.00996 -2.39676,-3.89768 -4.61832,-3.69022 -0.46727,0.0295 -0.92086,0.40265 -1.32653,0.0351 -0.37092,-0.16029 -0.78107,-0.20985 -1.18133,-0.22066 z m 2.27738,4.03128 0.0972,0.0248 0.003,5.1e-4 c 1.24899,0.50575 1.30587,2.11612 0.98909,3.2334 -0.59861,2.86998 -2.56086,5.59952 -5.36195,6.63835 -0.98091,0.31979 -2.33057,0.46027 -3.05873,-0.41858 -0.58688,-1.22492 0.25645,-2.53549 0.71779,-3.65714 0.95607,-1.90469 2.33792,-3.6044 3.87211,-5.05189 0.92449,0.52732 2.21317,0.14201 2.74195,-0.76946 z"
         style="font-size:22.5778px;font-family:'MV Boli';-inkscape-font-specification:'MV Boli';display:inline;fill:#ff5c0f;fill-opacity:1;stroke-width:1.465"
         id="path56" />
      <path
         d="m 119.56169,189.82769 c -0.21913,-0.0252 -0.44194,-0.0228 -0.65577,0.004 -0.0393,0.11372 -0.0754,-0.0218 -0.11162,-0.002 -2.10654,0.018 -4.11104,0.73943 -6.15983,1.13481 -1.09421,-0.97646 -3.03179,-0.24277 -3.31453,1.16789 -1.05147,2.35348 -1.46246,4.9146 -2.31097,7.32927 -0.37959,0.58174 -1.03985,1.00813 -1.12654,1.76475 -0.19091,0.60656 0.0328,1.2405 0.24339,1.78077 -0.1443,1.62082 -0.95015,3.47914 0.10025,4.95732 0.91221,1.08312 3.0191,0.52492 3.10679,-0.95033 0.36807,-1.36206 0.57135,-2.78557 0.99064,-4.12223 1.96197,-0.9008 4.1043,-1.48504 6.28127,-1.5136 1.52412,-0.53693 1.60555,-3.19518 -0.0656,-3.57446 -1.63455,-0.43175 -3.35489,-0.1546 -4.96352,0.25632 0.30607,-0.91921 0.42381,-2.0193 1.12189,-2.72594 2.13014,-1.02592 4.50686,-1.30602 6.78822,-1.80557 1.12267,-0.26287 2.11531,-1.4877 1.61334,-2.64635 -0.25512,-0.65609 -0.87998,-0.97863 -1.53738,-1.0542 z"
         style="font-size:22.5778px;font-family:'MV Boli';-inkscape-font-specification:'MV Boli';display:inline;fill:#ff5c0f;fill-opacity:1;stroke-width:1.465"
         id="path55" />
    </g>
    <path
       style="display:inline;opacity:1;fill:#ff1a0a;fill-opacity:1;stroke-width:1.63666;stroke-dasharray:none"
       d="m 104.11745,202.59883 c 0,0 1.58897,-3.76447 11.51819,-3.76447 9.9292,0 1.72127,8.01941 10.98853,5.84155 4.46998,-1.05048 3.56055,-5.97455 8.46683,-6.73019 3.5673,-0.54942 0.50366,2.83925 6.69922,2.49605 7.58001,-0.41988 5.04511,-1.26196 12.20904,-0.60854 7.56789,0.69026 4.44881,3.8016 7.4411,3.52065 4.8842,-0.45858 5.30745,-8.49212 7.59063,-4.80986 4.24202,6.84143 5.21715,-5.24898 12.05465,-0.77476 1.86935,1.22324 -8.23313,15.41645 -8.23313,15.41645 l -16.44118,1.39137 -40.59947,-1.28692 -16.989984,-0.79195 z"
       id="path47"
       sodipodi:nodetypes="cssssssssccccc"
       inkscape:label="Forge lava"
       clip-path="url(#clipPath51)" />
    <path
       id="path54"
       style="font-size:22.5778px;font-family:'MV Boli';-inkscape-font-specification:'MV Boli';display:none;stroke-width:1.465"
       d="m 139.66159,188.90912 c -1.66024,-0.0615 -2.66078,1.78724 -2.46629,3.26972 0.13842,2.24793 -0.91437,4.32705 -1.30297,6.50158 -0.61443,2.50753 -1.53265,4.9781 -1.74944,7.55811 0.16246,1.48755 2.29149,2.23046 3.27651,1.04363 0.9042,-0.96357 0.85754,-2.3851 1.31809,-3.56027 0.20647,-0.77288 0.41294,-1.54576 0.61941,-2.31863 0.84625,0.0457 1.78837,-0.33015 2.51483,0.28158 1.89871,1.06011 2.57103,3.26935 3.56423,5.05463 0.67323,0.98941 2.21517,1.29546 3.09673,0.40402 1.09029,-0.91508 1.05375,-2.65629 0.17449,-3.70045 -0.87917,-1.69811 -1.94441,-3.37541 -3.50848,-4.52221 2.07569,-1.0934 4.26767,-2.70033 4.72135,-5.15506 0.31961,-2.17743 -1.53669,-4.21246 -3.65718,-4.4518 -2.06264,-0.44492 -4.23465,0.22179 -6.23869,-0.37866 -0.11943,-0.0196 -0.24254,-0.02 -0.36259,-0.0262 z m -82.226564,0.11914 c -2.231163,0.18685 -3.696731,2.12066 -5.024105,3.70761 -0.482714,0.58598 -0.94092,1.19315 -1.380192,1.81192 0.287672,-1.4035 0.706998,-3.17208 -0.457429,-4.30313 -0.954822,-1.03545 -2.670415,-1.23419 -3.789609,-0.3439 -2.701889,1.63597 -4.457861,4.38085 -6.069651,7.01539 -1.569416,2.74795 -2.913917,5.65584 -3.737998,8.71562 -0.209504,1.11921 0.479099,2.40549 1.680463,2.53522 1.224118,0.24895 2.421651,-0.7511 2.566726,-1.95715 1.512904,-4.05906 3.071654,-8.22221 5.828983,-11.62299 -0.657214,3.79092 -2.079957,7.41 -2.687416,11.20741 -0.08974,1.37684 1.610988,2.57209 2.80851,1.71642 1.340265,-0.88084 1.460045,-2.65358 2.3816,-3.86489 1.483651,-2.4237 3.11273,-4.75751 4.759662,-7.0711 0.501451,-0.80536 0.483973,-0.43275 0.28253,0.29247 -0.560481,2.81897 -1.288828,5.6216 -1.671488,8.46566 0.0953,1.40866 1.987717,2.54134 3.130508,1.48841 1.387217,-1.24325 1.16644,-3.27235 1.588488,-4.92481 0.543106,-3.52876 1.3142,-7.0303 1.675184,-10.58887 -0.03379,-1.04922 -0.708269,-2.27437 -1.884766,-2.27929 z m 104.453124,0.30468 c -3.29777,0.35499 -5.97602,2.61919 -8.18509,4.92432 -2.06531,2.26122 -3.82571,5.15896 -3.70573,8.3215 0.31112,2.98793 3.38808,5.47903 6.39076,4.82382 3.13305,-0.536 5.99285,-2.42731 7.86373,-4.976 0.89585,-1.29834 1.62412,-2.84913 1.5543,-4.45496 -0.22727,-1.55859 -1.9617,-2.69049 -3.47431,-2.17235 -1.68065,0.32576 -3.18276,1.31359 -4.91288,1.42628 -1.56339,0.3643 -2.3811,2.56302 -1.18291,3.74268 0.75026,0.828 2.0482,0.75789 2.9289,0.19348 0.33659,-0.0489 1.66664,-0.75426 1.04498,-0.16252 -1.13188,1.20398 -2.67194,2.19358 -4.2889,2.52444 -1.38609,-0.0372 -2.27982,-1.77239 -1.56781,-2.94763 1.02914,-2.95967 3.55593,-5.12648 6.20811,-6.63208 0.55906,-0.29674 1.33643,-0.64848 1.802,-0.0338 0.70711,0.67063 1.99538,0.92895 2.63423,0.0243 1.05585,-1.29932 0.49086,-3.43983 -1.03085,-4.10918 -0.63355,-0.34162 -1.36199,-0.49637 -2.07853,-0.49239 z m -97.150389,0.0977 c -1.405736,0.0352 -2.419733,1.39868 -2.472198,2.72522 -1.166782,4.19543 -2.420439,8.37032 -3.289521,12.64001 -0.327618,1.04301 -0.516229,2.54206 0.640625,3.1504 1.405985,0.75148 3.355304,-0.35258 3.388724,-1.96494 0.503899,-2.7288 0.91704,-5.44957 1.886431,-8.06719 0.634123,-2.11978 1.686339,-4.1585 1.902579,-6.37608 -0.09857,-1.05131 -0.909652,-2.15699 -2.05664,-2.10742 z m 6.458984,0.2207 c -1.488602,0.0309 -2.360141,1.61049 -2.339257,2.95522 -0.790464,3.92746 -2.521586,7.66359 -3.335296,11.60746 -0.161428,1.22283 0.583921,2.38884 1.653,2.93507 1.251788,0.8499 2.872286,0.5735 4.17579,0.005 2.317793,-0.80129 4.624959,-1.66219 6.871154,-2.64329 1.269429,-0.74605 1.708919,-2.86147 0.393998,-3.77322 -1.089063,-0.66985 -2.241259,0.20487 -3.272719,0.55858 -1.72508,0.70977 -3.420057,1.52333 -5.232607,1.99198 0.761614,-3.77802 2.491148,-7.26902 3.205078,-11.0625 0.09293,-1.22798 -0.738691,-2.67535 -2.119141,-2.57422 z m 106.884765,0.11914 c -1.6962,0.0934 -3.31262,0.6645 -4.97656,0.95313 -0.93388,-1.19461 -3.09549,-0.77951 -3.55026,0.66178 -1.65713,2.95496 -2.00327,6.39821 -3.20245,9.5315 -0.52764,1.73003 -1.25026,3.46853 -1.28049,5.295 0.19608,1.35216 1.66269,2.19967 2.95584,1.95471 2.94422,-0.0395 5.72686,-1.27821 8.2258,-2.73987 0.89716,-0.58478 1.7781,-1.86136 1.04101,-2.88867 -0.89225,-1.08844 -2.5211,-0.71425 -3.58866,-0.11595 -1.30364,0.63335 -2.59511,1.42794 -4.06368,1.57689 0.23077,-0.53663 0.1704,-1.21911 0.53125,-1.67578 2.39876,-0.75264 4.68268,-1.83368 7.08789,-2.56445 1.05186,-0.4674 2.01629,-1.76165 1.38867,-2.90821 -0.71307,-1.06984 -2.16519,-0.73888 -3.18554,-0.39062 -1.29491,0.35702 -2.57659,0.80295 -3.85938,1.17187 0.32733,-1.12379 0.74039,-2.57082 2.08514,-2.80247 1.91048,-0.62715 3.86796,-1.0946 5.85627,-1.38698 0.8969,-0.17435 1.95008,-0.63338 2.03711,-1.67578 0.18576,-0.918 -0.51943,-1.7715 -1.4215,-1.89038 -0.67846,-0.17817 -1.38731,-0.11487 -2.08046,-0.10572 z m -59.28711,0.0586 c -2.10654,0.018 -4.11136,0.73938 -6.16015,1.13476 -1.09421,-0.97647 -3.03142,-0.2423 -3.31416,1.16836 -1.05147,2.35348 -1.46286,4.91425 -2.31137,7.32892 -0.37959,0.58174 -1.03982,1.00822 -1.12651,1.76484 -0.19091,0.60656 0.0332,1.24045 0.24379,1.78072 -0.1443,1.62082 -0.95037,3.47898 0.10004,4.95716 0.91221,1.08312 3.01889,0.52509 3.10658,-0.95016 0.36807,-1.36206 0.57179,-2.78544 0.99108,-4.1221 1.96197,-0.9008 4.10428,-1.48511 6.28125,-1.51367 1.52412,-0.53693 1.60538,-3.19544 -0.0658,-3.57472 -1.63455,-0.43175 -3.35484,-0.15456 -4.96347,0.25636 0.30607,-0.91921 0.42386,-2.01909 1.12194,-2.72573 2.13014,-1.02592 4.50686,-1.30597 6.78822,-1.80552 1.12267,-0.26287 2.11525,-1.48784 1.61328,-2.64649 -0.34016,-0.87479 -1.33792,-1.15621 -2.19323,-1.05053 -0.0393,0.11372 -0.0752,-0.0217 -0.11146,-0.002 z m -26.281253,0.0547 c -1.35008,0.056 -1.90206,1.47183 -2.546871,2.42773 -1.494867,1.69498 -2.924091,3.47662 -4.708984,4.88281 0.586569,-1.85686 1.340274,-3.84294 0.891626,-5.80649 -0.729335,-1.67797 -3.625464,-1.25955 -3.876001,0.54477 -1.015849,4.30424 -2.291306,8.55563 -3.038613,12.91614 -0.122358,1.21117 0.257621,2.89283 1.666963,3.11804 1.446956,0.25291 2.6383,-1.26802 2.439962,-2.63387 0.07387,-0.94169 0.131691,-1.8936 0.38286,-2.80851 0.802004,-0.31756 1.702541,-0.88292 2.557193,-0.40063 1.875235,0.46748 3.381368,2.20498 3.399942,4.16586 0.144341,1.20762 1.260013,2.3874 2.550673,2.07071 1.43311,-0.2067 2.42273,-1.88624 1.78092,-3.22021 -0.58542,-2.60612 -2.22581,-5.04974 -4.630525,-6.28956 1.947675,-1.75491 3.838875,-3.66545 5.146485,-5.94726 0.22229,-1.30486 -0.45682,-3.07693 -2.01563,-3.01953 z m 34.644543,0.10937 c -1.908,0.0583 -3.11279,1.75067 -4.3848,2.93501 -2.54728,2.69178 -4.79693,6.04162 -4.96234,9.85522 -0.0182,2.33426 1.56854,4.75507 3.96692,5.15523 3.42862,0.81146 6.95341,-0.93613 9.28851,-3.38237 2.66083,-2.76758 4.22686,-6.88311 3.21794,-10.68769 -0.56711,-2.00996 -2.39686,-3.89731 -4.61842,-3.68985 -0.46727,0.0295 -0.92078,0.40271 -1.32645,0.0352 -0.37092,-0.16029 -0.7811,-0.20993 -1.18136,-0.22074 z m 50.50195,2.7207 c 0.0933,0.33847 -0.29033,-0.0883 0,0 z m -34.22266,0.6543 c 0.71435,0.0617 1.50774,-0.11936 2.16211,0.23047 -0.54112,0.95083 -1.62806,1.38534 -2.49019,1.9893 -0.80918,0.46993 -1.66104,0.86064 -2.51762,1.23531 0.31315,-1.06576 0.6263,-2.13151 0.93945,-3.19727 0.60937,-0.1756 1.24614,-0.22995 1.90625,-0.25781 z m -13.90234,0.68164 c 1.24899,0.50575 1.30592,2.11578 0.98914,3.23306 -0.59861,2.86998 -2.56066,5.59998 -5.36175,6.63881 -0.98091,0.31979 -2.33087,0.46011 -3.05903,-0.41874 -0.58688,-1.22493 0.25656,-2.53545 0.7179,-3.6571 0.95607,-1.90469 2.33775,-3.6044 3.87194,-5.05189 0.92449,0.52732 2.21341,0.14194 2.74219,-0.76953 l 0.0969,0.0247 z"
       inkscape:label="Milk Forge Text Safty" />
  </g>
</svg>
